<?xml version="1.0" encoding="UTF-8"?>
<svg width="20px" height="39px" viewBox="0 0 20 39" version="1.1" xmlns="http://www.w3.org/2000/svg" xmlns:xlink="http://www.w3.org/1999/xlink">
    <title>Group 16</title>
    <defs>
        <linearGradient x1="139.460228%" y1="-250.884368%" x2="18.1239975%" y2="100%" id="linearGradient-1">
            <stop stop-color="#B1FFBF" offset="0%"></stop>
            <stop stop-color="#FFF16D" offset="100%"></stop>
        </linearGradient>
        <linearGradient x1="62.5201434%" y1="4.71016291%" x2="30.2512888%" y2="139.944801%" id="linearGradient-2">
            <stop stop-color="#B1FFBF" offset="0%"></stop>
            <stop stop-color="#FFF16D" offset="100%"></stop>
        </linearGradient>
    </defs>
    <g id="New-fuse-swap" stroke="none" stroke-width="1" fill="none" fill-rule="evenodd">
        <g id="Group-16" transform="translate(0.959015, 0.000000)">
            <path d="M9.82234333,29.3693074 C9.90489613,29.415481 9.98814853,29.464453 10.0707013,29.509927 C10.0049389,29.4707494 9.92448493,29.4217774 9.82794013,29.363011 L9.82234333,29.3693074 Z" id="Fill-17" fill="#FFFFFF"></path>
            <path d="M4.88855425,27.8075204 L0.103989853,37.4046332 C-0.100293347,37.7803184 0.0032474531,38.2140704 0.354446653,38.4582308 C0.502062253,38.561072 0.665069053,38.6107436 0.825977053,38.6107436 C1.04775025,38.6107436 1.26322705,38.515598 1.42343545,38.3323028 L11.1678141,27.6510198 C8.60074845,26.0512678 7.06232805,25.0422114 6.55255285,24.6238506" id="Fill-19" fill="url(#linearGradient-1)"></path>
            <path d="M18.3722949,1.18375264 C18.5653845,0.799672243 18.4492509,0.369418243 18.0882573,0.135751843 C17.7279633,-0.0951161572 17.2900137,-0.0265553572 17.0185689,0.303655843 L2.93702005,16.7617458 L2.69495845,17.0443842 C2.55014125,17.2234818 2.48787685,17.455749 2.52425605,17.6824194 C2.55993565,17.9090898 2.69076085,18.1112742 2.88385045,18.2365026 L5.70183925,20.0659566 L7.94195845,21.520425 C8.06508805,21.600879 8.10846325,21.7596882 8.04200125,21.8905134 L7.93846045,22.0968954 L6.55255285,24.6238506 C7.27523965,25.3164546 8.81785765,26.6086158 11.1678141,27.6510198 L13.1113029,25.8593442 L17.4404277,21.2391858 C17.6097309,21.0593886 17.6873865,20.8159278 17.6531061,20.5710678 C17.6188257,20.3262078 17.4775065,20.114229 17.2655277,19.9869018 L11.6001669,16.5959406 C11.4714405,16.5196842 11.4238677,16.3552782 11.4952269,16.2118602 L18.3722949,1.18375264 Z" id="Fill-28" fill="url(#linearGradient-2)"></path>
        </g>
    </g>
</svg>