<svg xmlns="http://www.w3.org/2000/svg" width="135" height="40" viewBox="0 0 135 40" fill="none">
<path d="M130.014 0H5.78185C3.02879 0 0.796997 2.24455 0.796997 5.01333V34.976C0.796997 37.7448 3.02879 39.9893 5.78185 39.9893H130.014C132.767 39.9893 134.999 37.7448 134.999 34.976V5.01333C134.999 2.24455 132.767 0 130.014 0Z" fill="black"/>
<path d="M130.015 0.782227C131.122 0.782227 132.183 1.22425 132.965 2.01107C133.747 2.79789 134.187 3.86505 134.187 4.97778V34.9867C134.187 36.0994 133.747 37.1665 132.965 37.9534C132.183 38.7402 131.122 39.1822 130.015 39.1822H5.74743C4.64102 39.1822 3.57992 38.7402 2.79757 37.9534C2.01522 37.1665 1.5757 36.0994 1.5757 34.9867V4.97778C1.5757 3.86505 2.01522 2.79789 2.79757 2.01107C3.57992 1.22425 4.64102 0.782227 5.74743 0.782227H130.015ZM130.015 1.58778e-09H5.74743C4.43146 -3.32839e-05 3.16887 0.523277 2.23504 1.45578C1.30121 2.38829 0.771906 3.65433 0.762573 4.97778V34.9867C0.771906 36.3101 1.30121 37.5762 2.23504 38.5087C3.16887 39.4412 4.43146 39.9645 5.74743 39.9645H130.015C130.665 39.9645 131.309 39.8357 131.909 39.5855C132.51 39.3354 133.055 38.9687 133.515 38.5065C133.975 38.0443 134.339 37.4955 134.588 36.8916C134.837 36.2876 134.965 35.6404 134.965 34.9867V4.97778C134.965 4.32409 134.837 3.67679 134.588 3.07286C134.339 2.46893 133.975 1.92018 133.515 1.45795C133.055 0.995724 132.51 0.629063 131.909 0.378906C131.309 0.12875 130.665 1.5878e-09 130.015 1.58778e-09Z" fill="#38D989"/>
<path d="M29.1525 19.3065C29.1171 16.3554 31.5565 14.8976 31.6979 14.8265C31.2098 14.1279 30.565 13.5546 29.8157 13.1531C29.0664 12.7516 28.2337 12.5332 27.3848 12.5154C25.5818 12.3021 23.8495 13.5821 22.9303 13.5821C22.0111 13.5821 20.5616 12.5154 19.0414 12.551C18.0596 12.5837 17.1031 12.873 16.2662 13.3905C15.4294 13.908 14.7409 14.6357 14.2687 15.5021C12.1828 19.1287 13.7384 24.4265 15.7182 27.3421C16.7081 28.7643 17.8747 30.3643 19.3949 30.3287C20.9151 30.2932 21.4454 29.3687 23.2485 29.3687C25.0515 29.3687 25.5464 30.3287 27.102 30.2932C28.6575 30.2576 29.6828 28.8354 30.6727 27.4132C31.3699 26.3825 31.9175 25.2571 32.299 24.071C32.2636 24.0354 29.1878 22.8621 29.1525 19.3065Z" fill="white"/>
<path d="M26.2159 10.5954C27.0857 9.54249 27.5165 8.19184 27.418 6.82654C26.0872 6.94369 24.8556 7.58219 23.9887 8.60432C23.2462 9.45765 22.5745 10.8799 22.7513 12.231C24.0594 12.3376 25.3675 11.5554 26.2159 10.5954Z" fill="white"/>
<path d="M47.9586 26.7025H42.903L41.6657 30.3292H39.5091L44.3172 16.9247H46.5798L51.3879 30.3292H49.196L47.9586 26.7025ZM43.4333 25.0314H47.4283L45.4485 19.1292H45.4131L43.4333 25.0314Z" fill="white"/>
<path d="M61.7834 25.4222C61.7834 28.48 60.1571 30.4356 57.7177 30.4356C57.1029 30.4659 56.4919 30.322 55.9544 30.0202C55.4169 29.7185 54.9744 29.2711 54.6773 28.7289H54.6066V33.5645H52.6268V20.5511H54.5359V22.1867H54.5712C54.8845 21.6403 55.3393 21.1897 55.8872 20.8829C56.4351 20.576 57.0555 20.4245 57.6823 20.4445C60.1571 20.4445 61.7834 22.4 61.7834 25.4222ZM59.7329 25.4222C59.7329 23.4667 58.7076 22.1511 57.152 22.1511C55.5965 22.1511 54.6066 23.4667 54.6066 25.4222C54.6066 27.3778 55.6318 28.7289 57.152 28.7289C58.6722 28.7289 59.7329 27.4489 59.7329 25.4222Z" fill="white"/>
<path d="M72.4606 25.4221C72.4606 28.4799 70.8697 30.4355 68.4303 30.4355C67.0162 30.4355 65.9202 29.7955 65.3546 28.7288H65.3192V33.5644H63.3041V20.551H65.2485V22.1866H65.2839C65.5941 21.6376 66.0483 21.1847 66.597 20.8775C67.1456 20.5703 67.7675 20.4205 68.395 20.4444C70.8344 20.4444 72.4606 22.3999 72.4606 25.4221ZM70.4101 25.4221C70.4101 23.4666 69.4202 22.151 67.8647 22.151C66.3091 22.151 65.3192 23.4666 65.3192 25.4221C65.3192 27.3777 66.3445 28.7288 67.8647 28.7288C69.3849 28.7288 70.4101 27.4488 70.4101 25.4221Z" fill="white"/>
<path d="M79.5292 26.5953C79.6707 27.9108 80.9787 28.7997 82.7111 28.7997C84.4434 28.7997 85.61 27.9108 85.61 26.702C85.61 25.4931 84.903 25.0664 83.1707 24.6397L81.4383 24.2131C78.9989 23.6086 77.8323 22.4709 77.8323 20.5864C77.8323 18.702 79.8474 16.6753 82.7111 16.6753C85.5747 16.6753 87.4484 18.2753 87.5191 20.5864H85.504C85.3626 19.2709 84.2666 18.4531 82.6757 18.4531C81.0848 18.4531 79.9535 19.2709 79.9535 20.4442C79.9535 21.6175 80.6606 21.9731 82.3929 22.3997L83.8424 22.7553C86.5999 23.3953 87.7312 24.4975 87.7312 26.4531C87.7312 28.9775 85.7515 30.542 82.5696 30.542C79.3878 30.542 77.6202 29.0131 77.5141 26.5953H79.5292Z" fill="white"/>
<path d="M92.0454 18.2401V20.5512H93.8838V22.1512H92.0454V27.5201C92.0454 28.3735 92.399 28.7646 93.2121 28.7646L93.8838 28.6935V30.2935L92.7525 30.3646C90.8081 30.3646 90.0303 29.6179 90.0303 27.7334V22.1512H88.6161V20.5512H90.0303V18.2401H92.0454Z" fill="white"/>
<path d="M94.9455 25.4222C94.9455 22.3645 96.7485 20.4445 99.5768 20.4445C102.405 20.4445 104.173 22.3645 104.173 25.4222C104.173 28.48 102.405 30.4356 99.5768 30.4356C96.7485 30.4356 94.9455 28.5156 94.9455 25.4222ZM102.122 25.4222C102.122 23.3245 101.168 22.08 99.5768 22.08C97.9859 22.08 96.996 23.3245 96.996 25.4222C96.996 27.52 97.9505 28.8 99.5768 28.8C101.203 28.8 102.122 27.5556 102.122 25.4222V25.4222Z" fill="white"/>
<path d="M105.797 20.5511H107.706V22.2222H107.777C107.9 21.6993 108.2 21.2358 108.626 20.9114C109.051 20.5869 109.576 20.4218 110.11 20.4445L110.782 20.5156V22.4C110.499 22.2966 110.199 22.2483 109.898 22.2578C108.59 22.2578 107.812 23.1467 107.812 24.5334V30.3289H105.797V20.5511Z" fill="white"/>
<path d="M119.976 27.4489C119.728 29.2267 117.996 30.4356 115.804 30.4356C112.976 30.4356 111.208 28.5511 111.208 25.4934C111.208 22.4356 112.976 20.4445 115.698 20.4445C118.42 20.4445 120.082 22.2933 120.082 25.2445V25.92H113.223V26.0622C113.223 27.7333 114.284 28.8356 115.839 28.8356C117.395 28.8356 117.819 28.3022 118.102 27.4489H119.976ZM113.223 24.5333H118.102C118.067 23.04 117.112 22.0445 115.698 22.0445C114.284 22.0445 113.329 23.04 113.223 24.5333Z" fill="white"/>
<path d="M43.1525 6.82654C45.0616 6.82654 46.1929 7.99987 46.1929 10.0265C46.1929 12.0532 45.0616 13.2621 43.1525 13.2621H40.8545V6.82654H43.1525ZM41.8444 12.3376H43.0464C44.3899 12.3376 45.1677 11.5199 45.1677 10.0265C45.1677 8.5332 44.3899 7.75097 43.0464 7.75097H41.8444V12.3376Z" fill="white"/>
<path d="M47.2869 10.8442C47.2869 9.27973 48.1707 8.31973 49.5848 8.31973C50.999 8.31973 51.8474 9.27973 51.8474 10.8442C51.8474 12.4086 50.999 13.3686 49.5848 13.3686C48.1707 13.3686 47.2869 12.4086 47.2869 10.8442ZM50.8929 10.8442C50.8929 9.77751 50.398 9.17306 49.5848 9.17306C48.7717 9.17306 48.2768 9.77751 48.2768 10.8442C48.2768 11.9108 48.7717 12.5153 49.5848 12.5153C50.398 12.5153 50.8929 11.8753 50.8929 10.8442Z" fill="white"/>
<path d="M57.9293 13.2625H56.9394L55.9495 9.67136H55.8434L54.8535 13.2625H53.899L52.5555 8.39136H53.5101L54.3939 12.1247H54.4646L55.4545 8.39136H56.3737L57.3636 12.1247H57.4344L58.2828 8.39136H59.2374L57.9293 13.2625Z" fill="white"/>
<path d="M60.3677 8.39126H61.2869V9.17347H61.3576C61.4812 8.89749 61.6872 8.66706 61.9469 8.51415C62.2066 8.36124 62.5073 8.29343 62.8071 8.32014C63.8677 8.32014 64.4687 8.96014 64.4687 10.1335V13.2624H63.5141V10.3468C63.5141 9.56459 63.1959 9.17347 62.4889 9.17347C62.328 9.16769 62.1678 9.19651 62.0188 9.25799C61.8699 9.31947 61.7358 9.4122 61.6253 9.52999C61.5149 9.64779 61.4307 9.78793 61.3785 9.94105C61.3262 10.0942 61.307 10.2567 61.3222 10.4179V13.2624H60.3677V8.39126Z" fill="white"/>
<path d="M65.9899 6.50677H66.9444V13.2623H65.9899V6.50677Z" fill="white"/>
<path d="M68.2878 10.8442C68.2878 9.27973 69.1363 8.31973 70.5505 8.31973C71.9646 8.31973 72.8485 9.27973 72.8485 10.8442C72.8485 12.4086 71.9646 13.3686 70.5505 13.3686C69.1363 13.3686 68.2878 12.4086 68.2878 10.8442ZM71.8586 10.8442C71.8586 9.77751 71.399 9.17306 70.5505 9.17306C69.702 9.17306 69.2777 9.77751 69.2777 10.8442C69.2777 11.9108 69.7373 12.5153 70.5505 12.5153C71.3636 12.5153 71.8586 11.8753 71.8586 10.8442Z" fill="white"/>
<path d="M73.8389 11.8753C73.8389 11.022 74.4752 10.5242 75.6419 10.4531L76.95 10.3464V9.95529C76.95 9.42196 76.5964 9.13752 75.9601 9.13752C75.3237 9.13752 75.0409 9.35085 74.9348 9.67085H74.0156C74.1217 8.85307 74.8995 8.31973 75.9954 8.31973C77.0914 8.31973 77.9045 8.92418 77.9045 9.95529V13.262H76.9853V12.5864H76.9146C76.7623 12.8306 76.5472 13.029 76.2921 13.1604C76.0369 13.2918 75.7512 13.3515 75.4651 13.3331C74.5106 13.3331 73.8389 12.7642 73.8389 11.8753ZM76.95 11.4842V11.0575L75.7833 11.1286C75.1116 11.1997 74.7934 11.4131 74.7934 11.8397C74.7934 12.2664 75.1823 12.5508 75.7126 12.5508C75.8641 12.5654 76.0169 12.5492 76.1619 12.503C76.307 12.4568 76.4413 12.3817 76.5568 12.2821C76.6723 12.1825 76.7667 12.0605 76.8342 11.9234C76.9018 11.7863 76.9412 11.6369 76.95 11.4842V11.4842Z" fill="white"/>
<path d="M79.1419 10.8446C79.1419 9.28011 79.955 8.32011 81.1571 8.32011C81.4597 8.3054 81.7602 8.3779 82.0232 8.52906C82.2862 8.68023 82.5009 8.90378 82.6419 9.17344H82.7126V6.50677H83.6672V13.2623H82.748V12.5157H82.6773C82.5196 12.7761 82.2955 12.9894 82.0281 13.1332C81.7608 13.277 81.46 13.3461 81.1571 13.3334C79.9197 13.3334 79.1419 12.3734 79.1419 10.8446ZM80.1318 10.8446C80.1318 11.8757 80.6268 12.4801 81.4399 12.4801C82.253 12.4801 82.748 11.8401 82.748 10.8446C82.748 9.849 82.2177 9.17344 81.4399 9.17344C80.6621 9.17344 80.1318 9.81345 80.1318 10.8446Z" fill="white"/>
<path d="M87.6268 10.8442C87.6268 9.27973 88.4752 8.31973 89.8894 8.31973C91.3035 8.31973 92.1873 9.27973 92.1873 10.8442C92.1873 12.4086 91.3035 13.3686 89.8894 13.3686C88.4752 13.3686 87.6268 12.4086 87.6268 10.8442ZM91.1975 10.8442C91.1975 9.77751 90.7379 9.17306 89.8894 9.17306C89.0409 9.17306 88.5813 9.77751 88.5813 10.8442C88.5813 11.9108 89.0763 12.5153 89.8894 12.5153C90.7025 12.5153 91.1975 11.8753 91.1975 10.8442V10.8442Z" fill="white"/>
<path d="M93.4601 8.39085H94.3793V9.17306H94.45C94.6621 8.63973 95.1571 8.31973 95.8995 8.31973C96.6419 8.31973 97.5611 8.95973 97.5611 10.1331V13.262H96.6066V10.3464C96.6066 9.56418 96.253 9.17306 95.546 9.17306C94.8389 9.17306 94.4147 9.67084 94.4147 10.4175V13.262H93.4601V8.39085Z" fill="white"/>
<path d="M102.935 7.1821V8.42654H103.995V9.24432H102.935V11.7332C102.935 12.231 103.147 12.4799 103.642 12.4799H103.995V13.2621L103.465 13.3332C102.405 13.3332 101.98 12.9421 101.98 12.0176V9.24432H101.238V8.42654H101.98V7.1821H102.935Z" fill="white"/>
<path d="M105.304 6.50677H106.258V9.17344H106.329C106.452 8.89746 106.658 8.66703 106.918 8.51412C107.178 8.36121 107.478 8.2934 107.778 8.32011C108.839 8.32011 109.475 8.96011 109.475 10.1334V13.2623H108.485V10.3468C108.485 9.60011 108.132 9.209 107.46 9.209C107.3 9.19855 107.139 9.22266 106.988 9.27971C106.838 9.33677 106.701 9.42546 106.587 9.53987C106.473 9.65428 106.385 9.79178 106.328 9.94319C106.272 10.0946 106.248 10.2564 106.258 10.4179V13.2623H105.304V6.50677Z" fill="white"/>
<path d="M115.026 11.9464C114.814 12.8353 114.036 13.3686 112.94 13.3686C111.844 13.3686 110.678 12.4086 110.678 10.8442C110.678 9.27973 111.562 8.31973 112.905 8.31973C114.249 8.31973 115.062 9.24417 115.062 10.7731V11.0931H111.668V11.1642C111.703 12.0175 112.198 12.5508 112.94 12.5508C113.683 12.5508 113.93 12.3375 114.107 11.9464H115.026ZM111.668 10.382H114.107C114.117 10.219 114.093 10.0557 114.037 9.90253C113.98 9.7494 113.893 9.60982 113.779 9.49268C113.666 9.37555 113.53 9.28345 113.38 9.22229C113.229 9.16114 113.067 9.13226 112.905 9.13752C112.741 9.1326 112.578 9.16142 112.426 9.22222C112.273 9.28301 112.135 9.3745 112.019 9.49105C111.903 9.60761 111.812 9.74675 111.752 9.89996C111.691 10.0532 111.663 10.2172 111.668 10.382V10.382Z" fill="white"/>
</svg>