<svg xmlns="http://www.w3.org/2000/svg" width="113" height="93" viewBox="0 0 83 63" fill="none">
<path d="M61.4 24.3106C60.5995 21.8733 59.306 19.6267 57.6 17.7106C54.4683 14.2001 50.8678 11.138 46.9 8.61063C45 7.31063 43 6.21063 41 5.11063C40.0075 4.5304 38.9709 4.02886 37.9 3.61063L36.2 3.11063L34.5 2.71063H33.8C33.6778 2.73234 33.5614 2.77908 33.4582 2.84791C33.3549 2.91675 33.267 3.00619 33.2 3.11063C33.0155 3.22895 32.8749 3.40463 32.8 3.61063C32.8 3.81063 32.7 4.01063 32.7 4.21063C32.7 4.41063 32.8 4.61063 32.8 4.81063C32.8749 5.01663 33.0155 5.19231 33.2 5.31063C33.5862 5.72957 34.0229 6.09905 34.5 6.41063L35.9 7.41063C36.7968 8.03537 37.732 8.60315 38.7 9.11063C40.6 10.2106 42.5 11.3106 44.3 12.5106C46.1525 13.6531 47.9234 14.9228 49.6 16.3106C51.22 17.6129 52.7255 19.0514 54.1 20.6106C55.4629 22.0308 56.4883 23.7397 57.1 25.6106C57.4163 26.3601 57.5624 27.1704 57.5278 27.9831C57.4933 28.7958 57.2788 29.5908 56.9 30.3106C55.8744 31.851 54.46 33.0929 52.8 33.9106C50.9512 34.8499 49.0067 35.5875 47 36.1106L40.7 37.3106L34.1 37.9106C29.6998 38.0939 25.2927 38.0272 20.9 37.7106C13.8875 37.2106 6.90936 36.3092 0 35.0106V38.4106C6.8009 39.8417 13.6791 40.8767 20.6 41.5106C25.1541 41.9268 29.7276 42.0937 34.3 42.0106C38.9109 41.8884 43.4991 41.3191 48 40.3106C50.3577 39.7495 52.6403 38.9103 54.8 37.8106C55.9394 37.2284 57.0124 36.5242 58 35.7106L59.5 34.3106C60.9335 32.6561 61.8084 30.5914 62 28.4106C62.1041 27.0165 61.8992 25.6165 61.4 24.3106Z" fill="url(#paint0_linear_3327_12121)"/>
<path d="M41 1.61062L34.9 2.31062L33.2 1.41063C31.0335 0.127042 28.4657 -0.300932 26 0.210625V0.510624C27.008 2.70325 28.6436 4.54768 30.7 5.81062L32.7 6.91063L36 13.0106L36.5 9.11062L38.5 4.51062L41 1.61062Z" fill="url(#paint1_linear_3327_12121)"/>
<defs>
<linearGradient id="paint0_linear_3327_12121" x1="-68.47" y1="22.3606" x2="62.15" y2="22.3606" gradientUnits="userSpaceOnUse">
<stop stop-color="#3AD889" stop-opacity="0.5"/>
<stop offset="0.21" stop-color="#65E070" stop-opacity="0.62"/>
<stop offset="0.6" stop-color="#B1EF45" stop-opacity="0.82"/>
<stop offset="0.87" stop-color="#E1F82A" stop-opacity="0.95"/>
<stop offset="1" stop-color="#F3FC1F"/>
</linearGradient>
<linearGradient id="paint1_linear_3327_12121" x1="22.78" y1="0.330625" x2="37.46" y2="6.85063" gradientUnits="userSpaceOnUse">
<stop stop-color="#3AD889"/>
<stop offset="0.78" stop-color="#F3FC1F"/>
</linearGradient>
</defs>
</svg>