<svg width="12" height="8" viewBox="0 0 12 8" fill="none" xmlns="http://www.w3.org/2000/svg">
<path d="M1.00067 3.5C0.72453 3.49963 0.500372 3.72319 0.5 3.99933C0.499629 4.27547 0.723186 4.49963 0.999328 4.5L1.00067 3.5ZM11.3531 4.36747C11.5486 4.17247 11.549 3.85589 11.354 3.66037L8.17632 0.474111C7.98133 0.278587 7.66474 0.278161 7.46922 0.47316C7.27369 0.66816 7.27327 0.984742 7.46827 1.18027L10.2929 4.01249L7.46066 6.83712C7.26514 7.03212 7.26471 7.3487 7.45971 7.54422C7.65471 7.73975 7.97129 7.74017 8.16682 7.54517L11.3531 4.36747ZM0.999328 4.5L10.9993 4.51344L11.0007 3.51345L1.00067 3.5L0.999328 4.5Z" fill="#32BD78"/>
</svg>
