<svg width="48" height="48" viewBox="0 0 48 48" fill="none" xmlns="http://www.w3.org/2000/svg">
<circle opacity="0.6" cx="24" cy="24" r="24" fill="#474B6B"/>
<path d="M33.3334 14.666L14.6667 33.3327" stroke="#7278AC" stroke-width="2.65395" stroke-linecap="round" stroke-linejoin="round"/>
<path d="M16.6668 20.0007C18.5078 20.0007 20.0002 18.5083 20.0002 16.6673C20.0002 14.8264 18.5078 13.334 16.6668 13.334C14.8259 13.334 13.3335 14.8264 13.3335 16.6673C13.3335 18.5083 14.8259 20.0007 16.6668 20.0007Z" stroke="#7278AC" stroke-width="2.65395" stroke-linecap="round" stroke-linejoin="round"/>
<path d="M31.3333 34.6667C33.1743 34.6667 34.6667 33.1743 34.6667 31.3333C34.6667 29.4924 33.1743 28 31.3333 28C29.4924 28 28 29.4924 28 31.3333C28 33.1743 29.4924 34.6667 31.3333 34.6667Z" stroke="#7278AC" stroke-width="2.65395" stroke-linecap="round" stroke-linejoin="round"/>
</svg>
