<svg className="icon2" width="18" height="10" viewBox="0 0 18 10" fill="none" xmlns="http://www.w3.org/2000/svg">
<path fill-rule="evenodd" clip-rule="evenodd" d="M0.646447 8.64645C0.451185 8.84171 0.451185 9.15829 0.646447 9.35355C0.841709 9.54882 1.15829 9.54882 1.35355 9.35355L5.35355 5.35355C5.54882 5.15829 5.54882 4.84171 5.35355 4.64645L1.35355 0.646446C1.15829 0.451185 0.841709 0.451185 0.646447 0.646446C0.451184 0.841709 0.451184 1.15829 0.646447 1.35355L4.29289 5L0.646447 8.64645ZM6.64645 9.35355C6.45118 9.15829 6.45118 8.84171 6.64645 8.64645L10.2929 5L6.64645 1.35355C6.45118 1.15829 6.45118 0.841709 6.64645 0.646446C6.84171 0.451185 7.15829 0.451185 7.35355 0.646446L11.3536 4.64645C11.5488 4.84171 11.5488 5.15829 11.3536 5.35355L7.35355 9.35355C7.15829 9.54882 6.84171 9.54882 6.64645 9.35355ZM12.6464 9.35355C12.4512 9.15829 12.4512 8.84171 12.6464 8.64645L16.2929 5L12.6464 1.35355C12.4512 1.15829 12.4512 0.841709 12.6464 0.646446C12.8417 0.451185 13.1583 0.451185 13.3536 0.646446L17.3536 4.64645C17.5488 4.84171 17.5488 5.15829 17.3536 5.35355L13.3536 9.35355C13.1583 9.54882 12.8417 9.54882 12.6464 9.35355Z" fill="white"/>
</svg>
