<svg xmlns="http://www.w3.org/2000/svg" width="23" height="20" viewBox="0 0 23 20" fill="none">
<path d="M21.0833 12.255C17.9854 13.4112 14.6747 14.0038 11.3333 14C7.885 14 4.59492 13.38 1.58325 12.255M11.3333 11H11.3441M15.6666 5V3C15.6666 2.46957 15.4383 1.96086 15.032 1.58579C14.6257 1.21071 14.0746 1 13.4999 1H9.16658C8.59195 1 8.04085 1.21071 7.63452 1.58579C7.22819 1.96086 6.99992 2.46957 6.99992 3V5H15.6666ZM3.74992 19H18.9166C19.4912 19 20.0423 18.7893 20.4486 18.4142C20.855 18.0391 21.0833 17.5304 21.0833 17V7C21.0833 6.46957 20.855 5.96086 20.4486 5.58579C20.0423 5.21071 19.4912 5 18.9166 5H3.74992C3.17528 5 2.62418 5.21071 2.21785 5.58579C1.81152 5.96086 1.58325 6.46957 1.58325 7V17C1.58325 17.5304 1.81152 18.0391 2.21785 18.4142C2.62418 18.7893 3.17528 19 3.74992 19Z" stroke="#0684A6" stroke-width="2" stroke-linecap="round" stroke-linejoin="round"/>
</svg>