<svg xmlns="http://www.w3.org/2000/svg" width="24" height="24" viewBox="0 0 24 24" fill="none">
<path fill-rule="evenodd" clip-rule="evenodd" d="M5 0C2.23858 0 0 2.23858 0 5V19C0 21.7614 2.23858 24 5 24H19C21.7614 24 24 21.7614 24 19V5C24 2.23858 21.7614 0 19 0H5ZM15.5043 17.2336C15.5043 17.2336 15.051 16.6918 14.6733 16.2256C16.3228 15.7594 16.9524 14.7387 16.9524 14.7387C16.4361 15.0789 15.945 15.3184 15.5043 15.4822C14.8747 15.7468 14.2703 15.9106 13.6785 16.024C12.4698 16.2508 11.3617 16.1878 10.4173 16.0114C9.6996 15.8728 9.08262 15.6838 8.56636 15.4696C8.27676 15.3562 7.96197 15.2175 7.64718 15.0411C7.62829 15.0285 7.6094 15.0191 7.59052 15.0096L7.5905 15.0096C7.57162 15.0002 7.55273 14.9907 7.53385 14.9781C7.52423 14.9733 7.51645 14.9685 7.5098 14.9644C7.49905 14.9578 7.49127 14.9529 7.48349 14.9529C7.25684 14.8269 7.13092 14.7387 7.13092 14.7387C7.13092 14.7387 7.73532 15.7342 9.33445 16.213C8.9567 16.6918 8.49081 17.2462 8.49081 17.2462C5.70807 17.158 4.65038 15.3436 4.65038 15.3436C4.65038 11.324 6.46357 8.06054 6.46357 8.06054C8.27676 6.71231 9.98921 6.75011 9.98921 6.75011L10.1151 6.90131C7.84864 7.54393 6.81613 8.53936 6.81613 8.53936C6.81613 8.53936 7.09315 8.38815 7.55904 8.18655C8.90633 7.59433 9.97662 7.44313 10.4173 7.39272L10.4456 7.38795C10.5091 7.37713 10.5654 7.36752 10.6314 7.36752C11.3995 7.26672 12.2683 7.24152 13.1749 7.34232C14.3711 7.48093 15.6554 7.83374 16.9649 8.53936C16.9649 8.53936 15.9702 7.59433 13.8296 6.95171L14.0059 6.75011C14.0059 6.75011 15.731 6.71231 17.5316 8.06054C17.5316 8.06054 19.3448 11.324 19.3448 15.3436C19.3448 15.3429 19.3418 15.3473 19.3359 15.3562L19.3359 15.3562C19.2287 15.517 18.1407 17.15 15.5043 17.2336ZM8.21448 12.7859C8.21448 12.0173 8.7811 11.3998 9.49882 11.3998C10.2165 11.3998 10.7958 12.0173 10.7832 12.7859C10.7832 13.5545 10.2165 14.1719 9.49882 14.1719C8.79369 14.1719 8.21448 13.5545 8.21448 12.7859ZM12.8089 12.7859C12.8089 12.0173 13.3756 11.3998 14.0933 11.3998C14.7984 11.3998 15.3776 12.0173 15.3776 12.7859C15.3776 13.5545 14.811 14.1719 14.0933 14.1719C13.3881 14.1719 12.8089 13.5545 12.8089 12.7859Z" fill="#8F9197"/>
</svg>