<svg classname="icon" xmlns="http://www.w3.org/2000/svg" width="19" height="20" viewBox="0 0 19 20" fill="none">
<path d="M2.5 19.5H17.5" stroke="white" stroke-linecap="round"/>
<path d="M9.5 19.5V6.5" stroke="white" stroke-linecap="round" stroke-linejoin="round"/>
<path d="M7 2.07988C5 0.579882 1 1.08008 1 1.08008C1 1.08008 1.5 4.07988 4.5 5.57988C7.5 7.07988 9.5 6.07988 9.5 6.07988C9.5 6.07988 9 3.57988 7 2.07988Z" stroke="white" stroke-linecap="round" stroke-linejoin="round"/>
<path d="M7 10.66C5 9.15996 1 9.66016 1 9.66016C1 9.66016 1.5 12.66 4.5 14.16C7.5 15.66 9.5 14.66 9.5 14.66C9.5 14.66 9 12.16 7 10.66Z" stroke="white" stroke-linecap="round" stroke-linejoin="round"/>
<path d="M12.5 6.65996C14.5 5.15996 18.5 5.66016 18.5 5.66016C18.5 5.66016 18 8.65996 15 10.16C12 11.66 10 10.66 10 10.66C10 10.66 10.5 8.15996 12.5 6.65996Z" stroke="white" stroke-linecap="round" stroke-linejoin="round"/>
</svg>