<svg xmlns="http://www.w3.org/2000/svg" width="52" height="73" viewBox="0 0 52 73" fill="none">
<path d="M27.7 33.8L16.9 23.9V23.6C16.8 23.6 16.8 23.5 16.8 23.4V23.2C16.4 24.6 17.4 29.2 18.1 29.9L25.7 36.8L27.8 33.8H27.7Z" fill="url(#paint0_linear_3307_12161)"/>
<path d="M48.6 33.4H48.5C48.5649 33.4866 48.6 33.5918 48.6 33.7C48.6 33.8082 48.5649 33.9135 48.5 34C48.5 34.0531 48.4789 34.1039 48.4414 34.1414C48.4039 34.179 48.353 34.2 48.3 34.2L6.6 68.4L34.3 49.5L48.1 40.1C48.9 39.5 49.5 34 48.6 33.4Z" fill="url(#paint1_linear_3307_12161)"/>
<path d="M51 0H50L36 23.1L37.7 24.6L37.9 24.7L51.2 0H51Z" fill="url(#paint2_linear_3307_12161)"/>
<path d="M48.5 33.2V33.4C48.5649 33.4865 48.6 33.5918 48.6 33.7C48.6 33.8082 48.5649 33.9135 48.5 34C48.5 34.053 48.4789 34.1039 48.4414 34.1414C48.4039 34.1789 48.353 34.2 48.3 34.2L6.6 68.4L5.3 69.3L1.9 72.2C1.9 72.2 1.5 72.5 1.2 72.2C1 72 1.0875 72.093 1.05279 72.0236C1.01807 71.9542 1 71.8776 1 71.8C0.985037 71.659 1.02046 71.5173 1.1 71.4L25.5 36.8L27.6 33.7C27.6 33.7 16.9 24.2109 16.8 23.8C16.7 23.3891 16.8 23.1 16.8 23.1C16.8 23.1 16.8421 22.9513 16.9 22.9L41 0H50.3L36.5 23.1L38.5 24.7L48.5 33.2Z" fill="#F3FC1F"/>
<defs>
<linearGradient id="paint0_linear_3307_12161" x1="15.73" y1="34.88" x2="26.9" y2="24.9" gradientUnits="userSpaceOnUse">
<stop stop-color="#3AD889"/>
<stop offset="0.15" stop-color="#35CE81"/>
<stop offset="0.4" stop-color="#29B36D"/>
<stop offset="0.71" stop-color="#15884C"/>
<stop offset="1" stop-color="#005B29"/>
</linearGradient>
<linearGradient id="paint1_linear_3307_12161" x1="2190.63" y1="1269.25" x2="369.327" y2="2874.72" gradientUnits="userSpaceOnUse">
<stop stop-color="#3AD889"/>
<stop offset="0.36" stop-color="#23A763"/>
<stop offset="0.79" stop-color="#0A7039"/>
<stop offset="1" stop-color="#005B29"/>
</linearGradient>
<linearGradient id="paint2_linear_3307_12161" x1="118018" y1="305.293" x2="165227" y2="305.293" gradientUnits="userSpaceOnUse">
<stop stop-color="#3AD889"/>
<stop offset="0.36" stop-color="#23A763"/>
<stop offset="0.79" stop-color="#0A7039"/>
<stop offset="1" stop-color="#005B29"/>
</linearGradient>
</defs>
</svg>