<svg xmlns="http://www.w3.org/2000/svg" width="181" height="51" viewBox="0 0 181 51" fill="none">
<path d="M155.632 16H158.739C160.373 16 161.243 15.1477 161.243 13.9901C161.243 12.9141 160.472 12.2642 159.645 12.2251V12.1541C160.401 11.9837 160.959 11.4474 160.959 10.5916C160.959 9.50142 160.149 8.72727 158.544 8.72727H155.632V16ZM157.17 14.7429V12.8111H158.459C159.197 12.8111 159.656 13.2372 159.656 13.8374C159.656 14.3842 159.283 14.7429 158.423 14.7429H157.17ZM157.17 11.7706V9.97017H158.338C159.02 9.97017 159.407 10.3217 159.407 10.8473C159.407 11.4226 158.938 11.7706 158.31 11.7706H157.17ZM164.701 16.1065C166.05 16.1065 166.959 15.4496 167.172 14.4375L165.773 14.3452C165.621 14.7607 165.23 14.9773 164.726 14.9773C163.969 14.9773 163.49 14.4766 163.49 13.6634V13.6598H167.204V13.2443C167.204 11.3906 166.082 10.4744 164.64 10.4744C163.035 10.4744 161.995 11.6143 161.995 13.2976C161.995 15.027 163.021 16.1065 164.701 16.1065ZM163.49 12.7223C163.522 12.1009 163.994 11.6037 164.665 11.6037C165.322 11.6037 165.777 12.0724 165.78 12.7223H163.49ZM171.093 10.5455H170.067V9.23864H168.554V10.5455H167.808V11.6818H168.554V14.5227C168.547 15.5916 169.275 16.1207 170.372 16.0746C170.763 16.0604 171.04 15.9822 171.192 15.9325L170.954 14.8068C170.88 14.821 170.72 14.8565 170.578 14.8565C170.276 14.8565 170.067 14.7429 170.067 14.3239V11.6818H171.093V10.5455ZM173.634 16.103C174.44 16.103 174.962 15.7514 175.228 15.2436H175.271V16H176.705V12.321C176.705 11.0213 175.605 10.4744 174.39 10.4744C173.083 10.4744 172.224 11.0994 172.014 12.0938L173.414 12.2074C173.517 11.8452 173.84 11.5788 174.383 11.5788C174.898 11.5788 175.193 11.8381 175.193 12.2855V12.3068C175.193 12.6584 174.82 12.7045 173.872 12.7969C172.792 12.8963 171.823 13.2585 171.823 14.4766C171.823 15.5561 172.593 16.103 173.634 16.103ZM174.067 15.0589C173.602 15.0589 173.268 14.8423 173.268 14.4268C173.268 14.0007 173.619 13.7912 174.152 13.7166C174.482 13.6705 175.022 13.5923 175.203 13.4716V14.0504C175.203 14.6222 174.731 15.0589 174.067 15.0589Z" fill="#B5B9D3"/>
<path d="M23.4995 23.0443C23.0341 23.4049 23.5236 26.4412 23.974 26.8769C24.4244 27.3127 28.4677 30.8812 28.4677 30.8812L29.6388 29.1834C29.6388 29.1834 24.1151 22.5935 23.4995 23.0443Z" fill="url(#paint0_linear_3220_12331)"/>
<path d="M14.9999 50.2805L41.0139 32.5314C41.451 32.2346 41.7977 29.1775 41.2701 28.8213C40.7426 28.4652 14.9999 50.2805 14.9999 50.2805Z" fill="url(#paint1_linear_3220_12331)"/>
<path d="M48.1707 0.71936L34.5121 23.23L35.5547 24.1341L48.1707 0.71936Z" fill="url(#paint2_linear_3220_12331)"/>
<path d="M47.6104 0.449314L23.566 23.1071C23.5299 23.1421 23.5012 23.1841 23.4815 23.2305C23.4619 23.277 23.4518 23.3269 23.4518 23.3774C23.4518 23.4278 23.4619 23.4778 23.4815 23.5242C23.5012 23.5707 23.5299 23.6126 23.566 23.6477L29.6145 29.1882L14.695 50.1343C14.6666 50.1649 14.6444 50.2008 14.6297 50.2399C14.6151 50.2791 14.6083 50.3208 14.6097 50.3626C14.6125 50.4471 14.6485 50.527 14.7099 50.5848C14.7713 50.6425 14.853 50.6734 14.937 50.6705C15.0211 50.6677 15.1005 50.6315 15.158 50.5697L41.1886 29.4135C41.2293 29.3797 41.2621 29.3372 41.2846 29.2892C41.3071 29.2412 41.3187 29.1888 41.3187 29.1357C41.3187 29.0826 41.3071 29.0302 41.2846 28.9822C41.2621 28.9341 41.2293 28.8917 41.1886 28.8579L34.513 23.2122L48.1033 0.839707C48.1288 0.807173 48.1477 0.769908 48.1588 0.730041C48.17 0.690173 48.1732 0.648482 48.1684 0.607351C48.1635 0.56622 48.1507 0.526453 48.1305 0.49032C48.1104 0.454187 48.0834 0.422393 48.051 0.39676C48.0187 0.371126 47.9816 0.352152 47.9419 0.340921C47.9023 0.329689 47.8608 0.326418 47.8199 0.331298C47.779 0.336178 47.7394 0.349114 47.7035 0.369363C47.6676 0.389611 47.6359 0.416779 47.6104 0.449314Z" fill="#F3FC1F"/>
<path d="M49.5949 23.7017C49.8777 23.7458 50.1577 23.806 50.4336 23.882L51.2424 24.1375C51.7629 24.336 52.2685 24.5721 52.755 24.8439C53.7435 25.385 54.702 25.9561 55.6306 26.5874C57.5027 27.8348 59.3299 29.2176 60.8575 31.0211C61.6213 31.938 62.3253 32.96 62.7296 34.2225C62.9519 34.8742 63.0386 35.5648 62.9842 36.2515C62.9409 36.9621 62.7304 37.6522 62.3702 38.2655C62.1964 38.5637 61.9959 38.8455 61.7711 39.1071C61.5516 39.3526 61.3165 39.5836 61.0672 39.7985C60.5872 40.1958 60.0648 40.5386 59.5096 40.8205C58.4557 41.3469 57.3452 41.7503 56.1997 42.0229C53.9682 42.579 51.7216 42.7894 49.505 42.8495C47.281 42.9023 45.0558 42.827 42.8403 42.6241C38.4451 42.231 34.088 41.4871 29.8104 40.3997C25.5353 39.3445 21.3411 37.9834 17.2598 36.3266C15.223 35.485 13.216 34.5531 11.2691 33.5161C10.2956 32.99 9.33703 32.449 8.39349 31.8628C7.44994 31.2767 6.53636 30.6604 5.63774 29.9991C4.7481 29.3223 3.898 28.5947 3.09167 27.8198C2.27186 27.0249 1.56618 26.1195 0.994907 25.1295C0.697943 24.6216 0.47121 24.0755 0.320947 23.5063C0.165925 22.9182 0.130276 22.3049 0.216111 21.7027C0.30856 21.0948 0.533572 20.5149 0.875093 20.0044C1.21346 19.5151 1.62813 19.0837 2.1032 18.7268C3.02724 18.054 4.05405 17.5363 5.14351 17.1938C6.20386 16.845 7.29079 16.5836 8.39349 16.4123C9.48443 16.2319 10.5844 16.1115 11.6884 16.0515L12.5121 15.9914L13.3359 15.9163L14.1596 15.796C14.4292 15.7359 14.6988 15.6758 14.9833 15.5856C15.172 15.524 15.3773 15.54 15.5543 15.6302C15.7312 15.7204 15.8652 15.8773 15.9269 16.0666C15.9596 16.1612 15.9731 16.2615 15.9666 16.3615C15.9601 16.4615 15.9338 16.5592 15.8891 16.6488C15.8445 16.7385 15.7824 16.8182 15.7066 16.8834C15.6308 16.9486 15.5427 16.9979 15.4476 17.0285C15.296 17.0731 15.1349 17.0731 14.9833 17.0285C14.4528 16.8667 13.9046 16.7708 13.3508 16.7429C12.8113 16.7204 12.2708 16.7354 11.7333 16.788C10.655 16.8631 9.57667 16.9984 8.51331 17.1788C7.46226 17.3629 6.42608 17.6241 5.41309 17.9603C4.40964 18.321 3.43614 18.7719 2.62739 19.4032C2.23214 19.7066 1.88825 20.072 1.60896 20.4853C1.33982 20.8864 1.16564 21.3439 1.09975 21.823C0.964955 22.7849 1.27947 23.7768 1.80366 24.6636C2.35254 25.5635 3.02288 26.3829 3.79559 27.0984C4.56215 27.8451 5.38317 28.5334 6.2518 29.1575C8.00985 30.4079 9.86265 31.5185 11.7932 32.479C13.7253 33.456 15.7172 34.3277 17.7391 35.1092C21.7844 36.6723 25.9393 37.9332 30.1699 38.8817C34.3864 39.8593 38.673 40.5026 42.9901 40.8055C45.1331 40.9633 47.2836 40.9934 49.4302 40.8957C50.4935 40.8356 51.5569 40.7454 52.6053 40.6101C53.6445 40.4771 54.6747 40.2813 55.6905 40.024C56.6701 39.7731 57.6193 39.4152 58.5211 38.9569C59.3748 38.4909 60.1087 37.8897 60.4981 37.1984C60.8875 36.507 60.9174 35.7255 60.6329 34.8988C60.3483 34.0722 59.8241 33.2305 59.1651 32.479C58.4895 31.7089 57.7478 30.9998 56.9486 30.3598C56.1269 29.7001 55.2721 29.083 54.3875 28.5112C53.4889 27.925 52.5753 27.399 51.6318 26.8729C51.1675 26.6174 50.7182 26.3319 50.2689 26.0313L49.6099 25.5503C49.3868 25.3863 49.1765 25.2055 48.9809 25.0093H48.9659C48.8957 24.9394 48.84 24.8563 48.802 24.7647C48.7639 24.6731 48.7444 24.5749 48.7444 24.4757C48.7444 24.3765 48.7639 24.2783 48.802 24.1867C48.84 24.0951 48.8957 24.012 48.9659 23.9421C49.0455 23.8565 49.1435 23.7903 49.2526 23.7486C49.3616 23.7069 49.4787 23.6909 49.5949 23.7017Z" fill="url(#paint3_linear_3220_12331)"/>
<path d="M49.5949 23.7017C49.8777 23.7458 50.1577 23.806 50.4336 23.882L51.2424 24.1375C51.7629 24.336 52.2685 24.5721 52.755 24.8439C53.7435 25.385 54.702 25.9561 55.6306 26.5874C57.5027 27.8348 59.3299 29.2176 60.8575 31.0211C61.6213 31.938 62.3253 32.96 62.7296 34.2225C62.9519 34.8742 63.0386 35.5648 62.9842 36.2515C62.9409 36.9621 62.7304 37.6522 62.3702 38.2655C62.1964 38.5637 61.9959 38.8455 61.7711 39.1071C61.5516 39.3526 61.3165 39.5836 61.0672 39.7985C60.5872 40.1958 60.0648 40.5386 59.5096 40.8205C58.4557 41.3469 57.3452 41.7503 56.1997 42.0229C53.9682 42.579 51.7216 42.7894 49.505 42.8495C47.281 42.9023 45.0558 42.827 42.8403 42.6241C38.4451 42.231 34.088 41.4871 29.8104 40.3997C25.5353 39.3445 21.3411 37.9834 17.2598 36.3266C15.223 35.485 13.216 34.5531 11.2691 33.5161C10.2956 32.99 9.33703 32.449 8.39349 31.8628C7.44994 31.2767 6.53636 30.6604 5.63774 29.9991C4.7481 29.3223 3.898 28.5947 3.09167 27.8198C2.27186 27.0249 1.56618 26.1195 0.994907 25.1295C0.697943 24.6216 0.47121 24.0755 0.320947 23.5063C0.165925 22.9182 0.130276 22.3049 0.216111 21.7027C0.30856 21.0948 0.533572 20.5149 0.875093 20.0044C1.21346 19.5151 1.62813 19.0837 2.1032 18.7268C3.02724 18.054 4.05405 17.5363 5.14351 17.1938C6.20386 16.845 7.29079 16.5836 8.39349 16.4123C9.48443 16.2319 10.5844 16.1115 11.6884 16.0515L12.5121 15.9914L13.3359 15.9163L14.1596 15.796C14.4292 15.7359 14.6988 15.6758 14.9833 15.5856C15.172 15.524 15.3773 15.54 15.5543 15.6302C15.7312 15.7204 15.8652 15.8773 15.9269 16.0666C15.9596 16.1612 15.9731 16.2615 15.9666 16.3615C15.9601 16.4615 15.9338 16.5592 15.8891 16.6488C15.8445 16.7385 15.7824 16.8182 15.7066 16.8834C15.6308 16.9486 15.5427 16.9979 15.4476 17.0285C15.296 17.0731 15.1349 17.0731 14.9833 17.0285C14.4528 16.8667 13.9046 16.7708 13.3508 16.7429C12.8113 16.7204 12.2708 16.7354 11.7333 16.788C10.655 16.8631 9.57667 16.9984 8.51331 17.1788C7.46226 17.3629 6.42608 17.6241 5.41309 17.9603C4.40964 18.321 3.43614 18.7719 2.62739 19.4032C2.23214 19.7066 1.88825 20.072 1.60896 20.4853C1.33982 20.8864 1.16564 21.3439 1.09975 21.823C0.964955 22.7849 1.27947 23.7768 1.80366 24.6636C2.35254 25.5635 3.02288 26.3829 3.79559 27.0984C4.56215 27.8451 5.38317 28.5334 6.2518 29.1575C8.00985 30.4079 9.86265 31.5185 11.7932 32.479C13.7253 33.456 15.7172 34.3277 17.7391 35.1092C21.7844 36.6723 25.9393 37.9332 30.1699 38.8817C34.3864 39.8593 38.673 40.5026 42.9901 40.8055C45.1331 40.9633 47.2836 40.9934 49.4302 40.8957C50.4935 40.8356 51.5569 40.7454 52.6053 40.6101C53.6445 40.4771 54.6747 40.2813 55.6905 40.024C56.6701 39.7731 57.6193 39.4152 58.5211 38.9569C59.3748 38.4909 60.1087 37.8897 60.4981 37.1984C60.8875 36.507 60.9174 35.7255 60.6329 34.8988C60.3483 34.0722 59.8241 33.2305 59.1651 32.479C58.4895 31.7089 57.7478 30.9998 56.9486 30.3598C56.1269 29.7001 55.2721 29.083 54.3875 28.5112C53.4889 27.925 52.5753 27.399 51.6318 26.8729C51.1675 26.6174 50.7182 26.3319 50.2689 26.0313L49.6099 25.5503C49.3868 25.3863 49.1765 25.2055 48.9809 25.0093H48.9659C48.8957 24.9394 48.84 24.8563 48.802 24.7647C48.7639 24.6731 48.7444 24.5749 48.7444 24.4757C48.7444 24.3765 48.7639 24.2783 48.802 24.1867C48.84 24.0951 48.8957 24.012 48.9659 23.9421C49.0455 23.8565 49.1435 23.7903 49.2526 23.7486C49.3616 23.7069 49.4787 23.6909 49.5949 23.7017Z" fill="url(#paint4_linear_3220_12331)"/>
<path d="M50.9025 24.0894L50.0038 26.0853L47.536 24.6688C46.6732 24.1624 45.9632 23.378 45.4961 22.4154L45.4391 22.2866C46.5023 22.0528 47.6041 22.2167 48.5773 22.7534L50.9025 24.0894Z" fill="url(#paint5_linear_3220_12331)"/>
<path d="M50.9921 24.134L52.0731 22.9633L49.3414 23.2521L50.9921 24.134Z" fill="url(#paint6_linear_3220_12331)"/>
<path d="M48.5609 24.9146L50.1219 25.8757L49.9009 27.6463" fill="url(#paint7_linear_3220_12331)"/>
<path d="M50.9025 24.0894L50.0038 26.0853L47.536 24.6688C46.6732 24.1624 45.9632 23.378 45.4961 22.4154L45.4391 22.2866C46.5023 22.0528 47.6041 22.2167 48.5774 22.7534L50.9025 24.0894Z" fill="url(#paint8_linear_3220_12331)"/>
<path d="M50.9921 24.134L52.0731 22.9633L49.3414 23.2521L50.9921 24.134Z" fill="url(#paint9_linear_3220_12331)"/>
<path d="M48.5609 24.9146L50.1219 25.8757L49.9009 27.6463" fill="url(#paint10_linear_3220_12331)"/>
<path d="M48.1707 0.71936L34.5121 23.23L35.5547 24.1341L48.1707 0.71936Z" fill="url(#paint11_linear_3220_12331)"/>
<path d="M77.3921 20.5398C76.3346 20.4968 75.4429 21.3345 75.4009 22.4106C75.4009 22.4141 75.4006 22.4173 75.4006 22.4212V24.3025H79.6674V27.487H75.4006V39.4998H71.56V27.487H69V24.3025H71.56V22.1291C71.56 19.0901 74.1203 17.0657 76.9648 17.0657C78.2677 17.0375 79.5345 17.5015 80.5209 18.3689L79.0986 21.1183C78.5867 20.7818 78.0001 20.5829 77.3921 20.5398Z" fill="url(#paint12_linear_3220_12331)"/>
<path d="M143.153 20.4753C142.095 20.4323 141.204 21.27 141.162 22.3461C141.162 22.3496 141.161 22.3528 141.161 22.3567V24.238H145.428V27.4226H141.161V39.4353H137.321V27.4226H134.761V24.238H137.321V22.0646C137.321 19.0256 139.881 17.0012 142.726 17.0012C144.028 16.973 145.295 17.437 146.282 18.3044L144.859 21.0538C144.347 20.7173 143.761 20.5184 143.153 20.4753Z" fill="url(#paint13_linear_3220_12331)"/>
<path d="M95.9076 24.1559V39.3528H92.9211L92.3516 37.6166H91.9271C91.3579 38.3403 90.078 39.4979 87.518 39.4979C83.5358 39.4979 81.544 36.6034 81.544 32.4056V24.1559H85.6702V31.3923C85.6702 33.274 85.8122 35.879 88.3732 35.879C89.6532 35.879 91.7866 35.1557 91.7866 31.2483V24.1559H95.9076Z" fill="url(#paint14_linear_3220_12331)"/>
<path d="M104.386 27.0015C103.106 27.0015 102.537 27.5807 102.537 28.304C102.537 29.3176 103.818 29.6072 104.813 29.8961C107.516 30.4753 110.217 31.3434 110.217 34.5272C110.217 37.7107 107.657 39.4483 104.528 39.4483C101.114 39.4483 98.4123 37.2773 98.2693 34.0932H101.967C102.108 35.3999 103.239 36.3595 104.528 36.2641C106.092 36.2641 106.376 35.396 106.376 34.8168C106.376 33.6591 105.381 33.3692 104.243 33.0799C102.536 32.6476 98.6955 31.9222 98.6955 28.4488C98.6948 25.4094 101.541 23.9625 104.386 23.9625C107.8 23.9625 109.933 25.989 110.075 28.5932H106.377C106.377 27.8696 105.953 27.0015 104.386 27.0015Z" fill="url(#paint15_linear_3220_12331)"/>
<path d="M126.355 32.8042H115.403C115.827 35.1187 117.678 35.9872 119.385 35.9872C120.483 36.0416 121.541 35.5572 122.23 34.6848H126.07C125.018 37.5865 122.283 39.4992 119.243 39.4593C115.066 39.447 111.689 35.9929 111.7 31.7437C111.7 31.6636 111.702 31.5827 111.705 31.5022C111.566 27.4109 114.714 23.9793 118.737 23.8381C118.858 23.8335 118.979 23.8325 119.101 23.8346C122.942 23.8346 126.924 26.5833 126.355 32.8042ZM115.687 29.7663H122.372C122.074 28.2695 120.742 27.222 119.243 27.3064C117.643 27.1998 116.178 28.2137 115.687 29.7663Z" fill="url(#paint16_linear_3220_12331)"/>
<path d="M149.492 21.9498C150.45 21.9498 151.227 21.1592 151.227 20.184C151.227 19.2088 150.45 18.4183 149.492 18.4183C148.534 18.4183 147.757 19.2088 147.757 20.184C147.757 21.1592 148.534 21.9498 149.492 21.9498Z" fill="url(#paint17_linear_3220_12331)"/>
<path d="M151.499 23.9625H147.685V39.4489H151.499V23.9625Z" fill="url(#paint18_linear_3220_12331)"/>
<path d="M131.081 40.3372C131.296 40.3355 131.509 40.2889 131.707 40.1999C131.906 40.1109 132.085 39.9814 132.236 39.8187C132.388 39.6559 132.507 39.4632 132.588 39.2515C132.669 39.0398 132.71 38.8132 132.708 38.5847C132.711 38.3552 132.672 38.1273 132.591 37.9141C132.511 37.7009 132.392 37.5067 132.241 37.3426C132.089 37.1785 131.909 37.0478 131.71 36.9581C131.511 36.8683 131.297 36.8212 131.081 36.8196C130.865 36.8212 130.651 36.8683 130.452 36.9581C130.253 37.0478 130.072 37.1785 129.921 37.3426C129.77 37.5067 129.651 37.7009 129.57 37.9141C129.49 38.1273 129.451 38.3552 129.454 38.5847C129.452 38.8132 129.493 39.0398 129.574 39.2515C129.655 39.4632 129.774 39.6559 129.925 39.8187C130.076 39.9814 130.256 40.1109 130.454 40.1999C130.653 40.2889 130.866 40.3355 131.081 40.3372Z" fill="url(#paint19_linear_3220_12331)"/>
<defs>
<linearGradient id="paint0_linear_3220_12331" x1="22.7084" y1="29.6835" x2="28.9446" y2="24.0509" gradientUnits="userSpaceOnUse">
<stop stop-color="#3AD889"/>
<stop offset="0.15" stop-color="#35CE81"/>
<stop offset="0.4" stop-color="#29B36D"/>
<stop offset="0.71" stop-color="#15884C"/>
<stop offset="1" stop-color="#005B29"/>
</linearGradient>
<linearGradient id="paint1_linear_3220_12331" x1="43.3094" y1="27.223" x2="16.8171" y2="52.5538" gradientUnits="userSpaceOnUse">
<stop stop-color="#3AD889"/>
<stop offset="0.36" stop-color="#23A763"/>
<stop offset="0.79" stop-color="#0A7039"/>
<stop offset="1" stop-color="#005B29"/>
</linearGradient>
<linearGradient id="paint2_linear_3220_12331" x1="3151.26" y1="1882.56" x2="4403.21" y2="1882.56" gradientUnits="userSpaceOnUse">
<stop stop-color="#3AD889"/>
<stop offset="0.36" stop-color="#23A763"/>
<stop offset="0.79" stop-color="#0A7039"/>
<stop offset="1" stop-color="#005B29"/>
</linearGradient>
<linearGradient id="paint3_linear_3220_12331" x1="-0.544715" y1="29.2101" x2="63.0741" y2="29.2101" gradientUnits="userSpaceOnUse">
<stop stop-color="#3AD889" stop-opacity="0.5"/>
<stop offset="0.21" stop-color="#65E070" stop-opacity="0.62"/>
<stop offset="0.6" stop-color="#B1EF45" stop-opacity="0.82"/>
<stop offset="0.87" stop-color="#E1F82A" stop-opacity="0.95"/>
<stop offset="1" stop-color="#F3FC1F"/>
</linearGradient>
<linearGradient id="paint4_linear_3220_12331" x1="-0.544715" y1="29.2101" x2="63.0741" y2="29.2101" gradientUnits="userSpaceOnUse">
<stop stop-color="#3AD889" stop-opacity="0.5"/>
<stop offset="0.21" stop-color="#65E070" stop-opacity="0.62"/>
<stop offset="0.6" stop-color="#B1EF45" stop-opacity="0.82"/>
<stop offset="0.87" stop-color="#E1F82A" stop-opacity="0.95"/>
<stop offset="1" stop-color="#F3FC1F"/>
</linearGradient>
<linearGradient id="paint5_linear_3220_12331" x1="42.0927" y1="23.0421" x2="49.1967" y2="26.2824" gradientUnits="userSpaceOnUse">
<stop stop-color="#3AD889"/>
<stop offset="0.1" stop-color="#4FDC7D"/>
<stop offset="0.54" stop-color="#A7ED4B"/>
<stop offset="0.85" stop-color="#DEF82B"/>
<stop offset="1" stop-color="#F3FC1F"/>
</linearGradient>
<linearGradient id="paint6_linear_3220_12331" x1="970.995" y1="197.731" x2="970.955" y2="210.001" gradientUnits="userSpaceOnUse">
<stop stop-color="#3AD889"/>
<stop offset="0.1" stop-color="#4FDC7D"/>
<stop offset="0.54" stop-color="#A7ED4B"/>
<stop offset="0.85" stop-color="#DEF82B"/>
<stop offset="1" stop-color="#F3FC1F"/>
</linearGradient>
<linearGradient id="paint7_linear_3220_12331" x1="265.704" y1="2453.94" x2="286.893" y2="2440.62" gradientUnits="userSpaceOnUse">
<stop stop-color="#3AD889"/>
<stop offset="0.1" stop-color="#4FDC7D"/>
<stop offset="0.54" stop-color="#A7ED4B"/>
<stop offset="0.85" stop-color="#DEF82B"/>
<stop offset="1" stop-color="#F3FC1F"/>
</linearGradient>
<linearGradient id="paint8_linear_3220_12331" x1="13355.7" y1="-9997.79" x2="13354.1" y2="-9723.17" gradientUnits="userSpaceOnUse">
<stop stop-color="#3AD889"/>
<stop offset="0.1" stop-color="#4FDC7D"/>
<stop offset="0.54" stop-color="#A7ED4B"/>
<stop offset="0.85" stop-color="#DEF82B"/>
<stop offset="1" stop-color="#F3FC1F"/>
</linearGradient>
<linearGradient id="paint9_linear_3220_12331" x1="971.268" y1="197.731" x2="971.228" y2="210.001" gradientUnits="userSpaceOnUse">
<stop stop-color="#3AD889"/>
<stop offset="0.1" stop-color="#4FDC7D"/>
<stop offset="0.54" stop-color="#A7ED4B"/>
<stop offset="0.85" stop-color="#DEF82B"/>
<stop offset="1" stop-color="#F3FC1F"/>
</linearGradient>
<linearGradient id="paint10_linear_3220_12331" x1="265.898" y1="2453.91" x2="287.087" y2="2440.59" gradientUnits="userSpaceOnUse">
<stop stop-color="#3AD889"/>
<stop offset="0.1" stop-color="#4FDC7D"/>
<stop offset="0.54" stop-color="#A7ED4B"/>
<stop offset="0.85" stop-color="#DEF82B"/>
<stop offset="1" stop-color="#F3FC1F"/>
</linearGradient>
<linearGradient id="paint11_linear_3220_12331" x1="3161.64" y1="1882.56" x2="4413.59" y2="1882.56" gradientUnits="userSpaceOnUse">
<stop stop-color="#3AD889"/>
<stop offset="0.36" stop-color="#23A763"/>
<stop offset="0.79" stop-color="#0A7039"/>
<stop offset="1" stop-color="#005B29"/>
</linearGradient>
<linearGradient id="paint12_linear_3220_12331" x1="65.4817" y1="28.0256" x2="199.151" y2="37.699" gradientUnits="userSpaceOnUse">
<stop stop-color="#F3FC1F"/>
<stop offset="0.18733" stop-color="#F3FC1F"/>
<stop offset="1" stop-color="#3AD8A4"/>
</linearGradient>
<linearGradient id="paint13_linear_3220_12331" x1="65.4817" y1="28.0256" x2="199.151" y2="37.699" gradientUnits="userSpaceOnUse">
<stop stop-color="#F3FC1F"/>
<stop offset="0.18733" stop-color="#F3FC1F"/>
<stop offset="1" stop-color="#3AD8A4"/>
</linearGradient>
<linearGradient id="paint14_linear_3220_12331" x1="65.4817" y1="28.0256" x2="199.151" y2="37.699" gradientUnits="userSpaceOnUse">
<stop stop-color="#F3FC1F"/>
<stop offset="0.18733" stop-color="#F3FC1F"/>
<stop offset="1" stop-color="#3AD8A4"/>
</linearGradient>
<linearGradient id="paint15_linear_3220_12331" x1="65.4817" y1="28.0256" x2="199.151" y2="37.699" gradientUnits="userSpaceOnUse">
<stop stop-color="#F3FC1F"/>
<stop offset="0.18733" stop-color="#F3FC1F"/>
<stop offset="1" stop-color="#3AD8A4"/>
</linearGradient>
<linearGradient id="paint16_linear_3220_12331" x1="65.4817" y1="28.0256" x2="199.151" y2="37.699" gradientUnits="userSpaceOnUse">
<stop stop-color="#F3FC1F"/>
<stop offset="0.18733" stop-color="#F3FC1F"/>
<stop offset="1" stop-color="#3AD8A4"/>
</linearGradient>
<linearGradient id="paint17_linear_3220_12331" x1="65.4817" y1="28.0256" x2="199.151" y2="37.699" gradientUnits="userSpaceOnUse">
<stop stop-color="#F3FC1F"/>
<stop offset="0.18733" stop-color="#F3FC1F"/>
<stop offset="1" stop-color="#3AD8A4"/>
</linearGradient>
<linearGradient id="paint18_linear_3220_12331" x1="65.4817" y1="28.0256" x2="199.151" y2="37.699" gradientUnits="userSpaceOnUse">
<stop stop-color="#F3FC1F"/>
<stop offset="0.18733" stop-color="#F3FC1F"/>
<stop offset="1" stop-color="#3AD8A4"/>
</linearGradient>
<linearGradient id="paint19_linear_3220_12331" x1="134.954" y1="40.7769" x2="129.678" y2="37.2593" gradientUnits="userSpaceOnUse">
<stop offset="0.0863256" stop-color="#3AD889"/>
<stop offset="0.779981" stop-color="#F3FC1F"/>
</linearGradient>
</defs>
</svg>