<?xml version="1.0" encoding="UTF-8"?>
<svg width="227px" height="47px" viewBox="0 0 227 47" version="1.1" xmlns="http://www.w3.org/2000/svg" xmlns:xlink="http://www.w3.org/1999/xlink">
    <title>Group 4</title>
    <defs>
        <linearGradient x1="144.387587%" y1="-250.884368%" x2="16.3683066%" y2="100%" id="linearGradient-1">
            <stop stop-color="#B1FFBF" offset="0%"></stop>
            <stop stop-color="#FFF16D" offset="100%"></stop>
        </linearGradient>
        <path d="M0,1.4348796 L0,1.5328236 C0.0013992,1.700028 0.0097944,1.8385488 0.0202884,1.948386 L0.0202884,1.948386 C0.0412764,2.0512272 0.0727584,2.161764 0.1000428,2.2681032 L0.1000428,2.2681032 C0.1895916,2.626998 0.2994288,3.0026832 0.4519416,3.4189452 L0.4519416,3.4189452 C0.7317816,4.1996988 1.1242572,4.9993416 1.6888344,5.9382048 L1.6888344,5.9382048 C2.58852,7.4171592 3.700884,8.8513392 5.0902896,10.3197996 L5.0902896,10.3197996 C7.5332928,12.8908296 10.45902,15.18132 13.785618,17.129706 L13.785618,17.129706 C15.4457688,18.1028496 17.1381012,18.9115872 18.815742,19.5342312 L18.815742,19.5342312 C20.8753644,20.2925976 22.6334592,20.701164 24.360072,20.8193964 L24.360072,20.8193964 L24.4454232,20.8207956 C24.6098292,20.8221948 24.7791324,20.8256928 24.9519336,20.8256928 L24.9519336,20.8256928 C25.6634268,20.8256928 26.504346,20.7900132 27.3431664,20.5255644 L27.3431664,20.5255644 C28.4793168,20.1925548 29.4363696,19.5181404 30.0401244,18.623352 L30.0401244,18.623352 C30.761412,17.517984 30.8117832,16.258704 30.7257324,15.398196 L30.7257324,15.398196 C30.6641676,14.7447696 30.4095132,13.8758664 30.2570004,13.3945416 L30.2570004,13.3945416 L31.9199496,13.6114176 L27.3837432,9.9056364 L27.7153536,15.6934272 L28.5373836,14.3641872 C28.6542168,14.7979392 28.7612556,15.3170424 28.7969352,15.6087756 L28.7969352,15.6087756 C28.9011756,16.4133156 28.7878404,17.1129156 28.4709216,17.6292204 L28.4709216,17.6292204 C28.1183232,18.1735092 27.5446512,18.5897712 26.8072728,18.8339316 L26.8072728,18.8339316 C26.1076728,19.0843884 25.3087296,19.1151708 24.4209372,19.1277636 L24.4209372,19.1277636 C22.890912,19.0703964 21.2244648,18.7324896 19.3243512,18.095154 L19.3243512,18.095154 C17.7061764,17.549466 16.0670136,16.8260796 14.453736,15.9431844 L14.453736,15.9431844 C11.1719124,14.1543072 8.269272,12.019128 5.8269684,9.6006108 L5.8269684,9.6006108 C4.4445588,8.223798 3.3307956,6.8756688 2.4213156,5.4806664 L2.4213156,5.4806664 C1.8616356,4.6082652 1.4684604,3.8659896 1.1830236,3.1419036 L1.1830236,3.1419036 C1.0507992,2.812392 0.947958,2.4926748 0.860508,2.1778548 L0.860508,2.1778548 C0.8248284,2.0484288 0.78705,1.9183032 0.759066,1.7916756 L0.759066,1.7916756 C0.5582808,1.2201024 0.199386,0.1895916 0.143418,0.0125928 L0.143418,0.0125928 C0.0377784,0.6044544 0.0027984,1.077384 0,1.4348796" id="path-2"></path>
        <linearGradient x1="6.171875%" y1="37.2768906%" x2="90.2512253%" y2="64.7482244%" id="linearGradient-4">
            <stop stop-color="#BBFFC3" offset="0%"></stop>
            <stop stop-color="#FFF279" offset="100%"></stop>
        </linearGradient>
        <path d="M0.143418,5.1693444 L5.6121912,5.1273684 L4.2976428,4.0254984 C5.005638,3.9940164 5.9766828,3.9758268 6.3950436,4.0108068 L6.3950436,4.0108068 C7.471728,4.1059524 8.5924872,4.3193304 9.7251396,4.6467432 L9.7251396,4.6467432 C11.8225404,5.2532964 13.97451,6.163476 16.1215824,7.3520964 L16.1215824,7.3520964 C18.1588176,8.4707568 20.1155988,9.7895028 21.939456,11.270556 L21.939456,11.270556 C23.3617428,12.4332912 24.9981072,13.9129452 24.9981072,13.9129452 L24.9981072,13.9129452 C25.3066308,14.2221684 26.7436092,15.5374164 26.7436092,15.5374164 L26.7436092,15.5374164 C26.455374,14.5076052 25.6732212,13.5106752 25.6732212,13.5106752 L25.6732212,13.5106752 L25.671822,13.5113748 C24.7504488,12.3493392 23.9920824,11.7385884 22.600578,10.4946996 L22.600578,10.4946996 C20.79561,8.8877184 18.8423268,7.440246 16.7959968,6.1928592 L16.7959968,6.1928592 C14.6125452,4.8524256 12.3997104,3.7974288 10.2183576,3.0586512 L10.2183576,3.0586512 C8.9954568,2.6458872 7.7746548,2.3562528 6.5888328,2.1981432 L6.5888328,2.1981432 C5.5842072,2.074314 4.4046816,2.2044396 3.3496848,2.3667468 L3.3496848,2.3667468 L3.5798532,0.3875784 L0.143418,5.1693444 Z" id="path-5"></path>
        <linearGradient x1="6.171875%" y1="40.292876%" x2="90.2512253%" y2="61.2521898%" id="linearGradient-7">
            <stop stop-color="#BBFFC3" offset="0%"></stop>
            <stop stop-color="#FFF279" offset="100%"></stop>
        </linearGradient>
        <linearGradient x1="62.5201434%" y1="4.71016291%" x2="30.2512888%" y2="139.944801%" id="linearGradient-8">
            <stop stop-color="#B1FFBF" offset="0%"></stop>
            <stop stop-color="#FFF16D" offset="100%"></stop>
        </linearGradient>
    </defs>
    <g id="Page-1" stroke="none" stroke-width="1" fill="none" fill-rule="evenodd">
        <g id="home-page-copy-11" transform="translate(-30.000000, -12.000000)">
            <g id="Group-4" transform="translate(30.000000, 12.000000)">
                <path d="M88.7394328,17.079854 C93.4715272,17.079854 96.429436,19.8404756 96.6260236,23.3888468 L91.5000544,23.3888468 C91.5000544,22.4024108 90.9109912,21.2200868 88.7394328,21.2200868 C86.9645476,21.2200868 86.1760984,22.0092356 86.1760984,22.994972 C86.1760984,24.1104034 87.3339747,24.5818604 88.506245,24.929476 L88.8405832,25.0258743 C89.0069604,25.0728378 89.1714089,25.1182849 89.3305948,25.163732 C93.0776524,25.9528808 96.8233108,27.1352048 96.8233108,31.4727248 C96.8233108,35.8095452 93.27424,38.1769916 88.9360204,38.1769916 C84.203926,38.1769916 80.457568,35.2197824 80.2602808,30.8815628 L85.38625,30.8815628 C85.5800392,32.6613452 87.149242,33.9695972 88.9353208,33.838772 C91.1040808,33.838772 91.4986552,32.656448 91.4986552,31.8672992 C91.4986552,30.2897012 90.1183444,29.8951268 88.5407464,29.501252 C86.1739996,28.9121888 80.8507432,27.923654 80.8507432,23.1915596 C80.8500436,19.0513268 84.7957876,17.079854 88.7394328,17.079854 Z M62.9141185,17.079854 L62.9141185,26.9386172 C62.9141185,29.5019516 63.1107061,33.0503228 66.6604765,33.0503228 C68.4353617,33.0503228 71.3932705,32.0645864 71.3932705,26.7420296 L71.3932705,17.079854 L77.1055045,17.079854 L77.1055045,37.7831168 L72.9652717,37.7831168 L72.1761229,35.4177692 L71.5870597,35.4177692 C70.7986105,36.4035056 69.0244249,37.9811036 65.4753541,37.9811036 C59.9548105,37.9811036 57.1941889,34.0374584 57.1941889,28.318928 L57.1941889,17.079854 L62.9141185,17.079854 Z M109.246528,16.6854195 C114.493325,16.6854195 119.931053,20.3246537 119.332233,28.5452795 L119.301821,28.9093494 L104.119859,28.9095303 C104.708223,32.0640267 107.274355,33.2477499 109.640403,33.2477499 C111.163432,33.3219075 112.629094,32.6614851 113.584048,31.4728647 L118.908004,31.4728647 C117.450037,35.4270039 113.658205,38.0344131 109.443815,37.9798443 C103.652526,37.9630539 98.9708029,33.2561451 98.9868524,27.4648563 C98.9875933,27.3550191 98.9896921,27.2451819 98.9931901,27.1360443 C98.8008001,21.5595327 103.165605,16.8834063 108.741417,16.6903167 C108.91002,16.6840452 109.077924,16.6826211 109.246528,16.6854195 Z M55.8119892,8.99583604 L53.8398168,12.742194 C53.1304224,12.2832564 52.3167876,12.0118116 51.4737696,11.9530452 L51.4744692,11.9537448 C50.0088072,11.8949784 48.772614,13.036026 48.7145472,14.5023876 L48.7138476,17.079714 L54.6289656,17.079714 L54.6289656,21.4179336 L48.7138476,21.4179336 L48.7138476,37.7829768 L43.3898916,37.7829768 L43.3898916,21.4179336 L39.8408208,21.4179336 L39.8408208,17.079714 L43.3898916,17.079714 L43.3898916,14.1190068 C43.3898916,9.97877404 46.9389624,7.22095084 50.881908,7.22095084 C52.6882752,7.18317244 54.4449708,7.81491124 55.8119892,8.99583604 Z M104.514433,24.7692975 L113.781335,24.7692975 C113.368571,22.7299635 111.520927,21.3027795 109.443815,21.4175139 C107.226083,21.2719971 105.193745,22.6544067 104.514433,24.7692975 Z" id="Combined-Shape" fill="#052235"></path>
                <path d="M139.129802,37.9811036 C136.66651,37.9811036 134.666354,37.3514636 133.127234,36.091484 C131.588114,34.8329036 130.818554,33.2944832 130.818554,31.474124 L135.393938,31.474124 C135.393938,32.3143436 135.764726,33.0006512 136.506302,33.5323472 C137.247878,34.0633436 138.207029,34.328492 139.381658,34.328492 C140.249162,34.328492 140.93477,34.1193116 141.438482,33.698852 C141.942893,33.279092 142.19405,32.7201116 142.19405,32.0205116 C142.19405,30.9018512 141.70433,30.2155436 140.72489,29.962988 L135.68777,28.5791792 C132.861386,27.794228 131.448893,25.9906592 131.448893,23.1635756 C131.448893,21.5405036 132.147794,20.1769832 133.547693,19.0716152 C134.946194,17.9662472 136.751162,17.4128636 138.962597,17.4128636 C141.452474,17.4128636 143.362382,17.9725436 144.691622,19.0919036 C146.020862,20.2112636 146.685482,21.679724 146.685482,23.498684 L142.19405,23.498684 C142.19405,22.6885472 141.893222,22.0512116 141.291566,21.5894756 C140.68921,21.1277396 139.857386,20.8968716 138.794693,20.8968716 C137.981758,20.8968716 137.310142,21.0857636 136.779845,21.4642472 C136.24745,21.8413316 135.981602,22.323356 135.981602,22.91102 C135.981602,23.9751116 136.541282,24.6747116 137.660642,25.00982 L142.320677,26.353052 C143.66321,26.744828 144.754586,27.4108472 145.594106,28.3476116 C146.433626,29.2850756 146.853386,30.368756 146.853386,31.600052 C146.853386,33.5036636 146.174774,35.042084 144.81755,36.2181116 C143.459626,37.3934396 141.56441,37.9811036 139.129802,37.9811036" id="Fill-9" fill="#052235"></path>
                <polygon id="Fill-11" fill="#052235" points="155.500722 37.4769018 148.28085 17.9167854 153.31797 17.9167854 157.388942 30.8446938 161.629218 17.9167854 166.582386 17.9167854 170.821262 30.8446938 174.893634 17.9167854 179.930754 17.9167854 172.710882 37.4769018 168.84909 37.4769018 164.105802 23.5408698 159.362514 37.4769018"></polygon>
                <path d="M191.054604,33.9092217 C192.929532,33.9092217 194.363012,33.3215577 195.357144,32.1462297 C196.349876,30.9716013 196.847292,29.4877497 196.847292,27.6960741 C196.847292,25.9064973 196.349876,24.4219461 195.357144,23.2473177 C194.363012,22.0719897 192.929532,21.4843257 191.054604,21.4843257 C189.291612,21.4843257 187.899408,22.0649937 186.877992,23.2263297 C185.855876,24.3883653 185.345868,25.8778137 185.345868,27.6960741 C185.345868,29.5164333 185.855876,31.0072809 186.877992,32.1672177 C187.899408,33.3285537 189.291612,33.9092217 191.054604,33.9092217 M190.382988,37.9808937 C187.332732,37.9808937 184.968084,37.0147461 183.289044,35.0845497 C181.610004,33.1536537 180.770484,30.6910617 180.770484,27.6960741 C180.770484,24.7311693 181.652679,22.2755733 183.414972,20.3299857 C185.178663,18.3857973 187.542612,17.4126537 190.508916,17.4126537 C191.824164,17.4126537 193.027476,17.6924937 194.118852,18.2514741 C195.210228,18.8118537 196.050447,19.5814137 196.637412,20.5608537 L196.637412,17.9170653 L201.213495,17.9170653 L201.213495,37.4771817 L196.637412,37.4771817 L196.637412,34.8326937 C196.077732,35.7841497 195.203232,36.5474133 194.013912,37.1203857 C192.823892,37.6940577 191.614284,37.9808937 190.382988,37.9808937" id="Fill-13" fill="#052235"></path>
                <path d="M215.848008,33.9092217 C217.527048,33.9092217 218.897564,33.3285537 219.961656,32.1672177 C221.025048,31.0072809 221.556744,29.5164333 221.556744,27.6960741 C221.556744,25.8778137 221.025048,24.3883653 219.961656,23.2263297 C218.897564,22.0649937 217.527048,21.4843257 215.848008,21.4843257 C214.113,21.4843257 212.7138,22.0586973 211.650408,23.2046421 C210.586316,24.3526857 210.056019,25.8498297 210.056019,27.6960741 C210.056019,29.5437177 210.586316,31.0408617 211.650408,32.1889053 C212.7138,33.3369489 214.113,33.9092217 215.848008,33.9092217 M216.813456,17.4126537 C219.611856,17.4126537 221.864568,18.3571137 223.571592,20.2467333 C225.277916,22.1349537 226.132128,24.6192333 226.132128,27.6960741 C226.132128,30.7183461 225.23664,33.1893333 223.445664,35.1062373 C221.654688,37.0231413 219.346008,37.9808937 216.519624,37.9808937 C215.23236,37.9808937 214.015056,37.6940577 212.867712,37.1203857 C211.720368,36.5474133 210.852864,35.7841497 210.265899,34.8326937 L210.265899,46.2914421 L205.689816,46.2914421 L205.689816,17.9170653 L210.265899,17.9170653 L210.265899,20.5608537 C210.852864,19.6100973 211.748352,18.8475333 212.951664,18.2731617 C214.154976,17.6994897 215.44224,17.4126537 216.813456,17.4126537" id="Fill-15" fill="#052235"></path>
                <path d="M14.7813587,29.3693074 C14.8639115,29.415481 14.9471639,29.464453 15.0297167,29.509927 C14.9639543,29.4707494 14.8835003,29.4217774 14.7869555,29.363011 L14.7813587,29.3693074 Z" id="Fill-17" fill="#FFFFFF"></path>
                <path d="M9.8475696,27.8075204 L5.0630052,37.4046332 C4.858722,37.7803184 4.9622628,38.2140704 5.313462,38.4582308 C5.4610776,38.561072 5.6240844,38.6107436 5.7849924,38.6107436 C6.0067656,38.6107436 6.2222424,38.515598 6.3824508,38.3323028 L13.8191988,30.18686 C12.054108,29.4935564 10.6122324,28.4350616 9.8475696,27.8075204" id="Fill-19" fill="url(#linearGradient-1)"></path>
                <g id="Group-24" transform="translate(0.000000, 12.011182)">
                    <mask id="mask-3" fill="white">
                        <use xlink:href="#path-2"></use>
                    </mask>
                    <g id="Clip-23"></g>
                    <path d="M0,1.4348796 L0,1.5328236 C0.0013992,1.700028 0.0097944,1.8385488 0.0202884,1.948386 L0.0202884,1.948386 C0.0412764,2.0512272 0.0727584,2.161764 0.1000428,2.2681032 L0.1000428,2.2681032 C0.1895916,2.626998 0.2994288,3.0026832 0.4519416,3.4189452 L0.4519416,3.4189452 C0.7317816,4.1996988 1.1242572,4.9993416 1.6888344,5.9382048 L1.6888344,5.9382048 C2.58852,7.4171592 3.700884,8.8513392 5.0902896,10.3197996 L5.0902896,10.3197996 C7.5332928,12.8908296 10.45902,15.18132 13.785618,17.129706 L13.785618,17.129706 C15.4457688,18.1028496 17.1381012,18.9115872 18.815742,19.5342312 L18.815742,19.5342312 C20.8753644,20.2925976 22.6334592,20.701164 24.360072,20.8193964 L24.360072,20.8193964 L24.4454232,20.8207956 C24.6098292,20.8221948 24.7791324,20.8256928 24.9519336,20.8256928 L24.9519336,20.8256928 C25.6634268,20.8256928 26.504346,20.7900132 27.3431664,20.5255644 L27.3431664,20.5255644 C28.4793168,20.1925548 29.4363696,19.5181404 30.0401244,18.623352 L30.0401244,18.623352 C30.761412,17.517984 30.8117832,16.258704 30.7257324,15.398196 L30.7257324,15.398196 C30.6641676,14.7447696 30.4095132,13.8758664 30.2570004,13.3945416 L30.2570004,13.3945416 L31.9199496,13.6114176 L27.3837432,9.9056364 L27.7153536,15.6934272 L28.5373836,14.3641872 C28.6542168,14.7979392 28.7612556,15.3170424 28.7969352,15.6087756 L28.7969352,15.6087756 C28.9011756,16.4133156 28.7878404,17.1129156 28.4709216,17.6292204 L28.4709216,17.6292204 C28.1183232,18.1735092 27.5446512,18.5897712 26.8072728,18.8339316 L26.8072728,18.8339316 C26.1076728,19.0843884 25.3087296,19.1151708 24.4209372,19.1277636 L24.4209372,19.1277636 C22.890912,19.0703964 21.2244648,18.7324896 19.3243512,18.095154 L19.3243512,18.095154 C17.7061764,17.549466 16.0670136,16.8260796 14.453736,15.9431844 L14.453736,15.9431844 C11.1719124,14.1543072 8.269272,12.019128 5.8269684,9.6006108 L5.8269684,9.6006108 C4.4445588,8.223798 3.3307956,6.8756688 2.4213156,5.4806664 L2.4213156,5.4806664 C1.8616356,4.6082652 1.4684604,3.8659896 1.1830236,3.1419036 L1.1830236,3.1419036 C1.0507992,2.812392 0.947958,2.4926748 0.860508,2.1778548 L0.860508,2.1778548 C0.8248284,2.0484288 0.78705,1.9183032 0.759066,1.7916756 L0.759066,1.7916756 C0.5582808,1.2201024 0.199386,0.1895916 0.143418,0.0125928 L0.143418,0.0125928 C0.0377784,0.6044544 0.0027984,1.077384 0,1.4348796" id="Fill-22" fill="url(#linearGradient-4)" mask="url(#mask-3)"></path>
                </g>
                <g id="Group-27" transform="translate(0.000000, 5.714782)">
                    <mask id="mask-6" fill="white">
                        <use xlink:href="#path-5"></use>
                    </mask>
                    <g id="Clip-26"></g>
                    <path d="M0.143418,5.1693444 L5.6121912,5.1273684 L4.2976428,4.0254984 C5.005638,3.9940164 5.9766828,3.9758268 6.3950436,4.0108068 L6.3950436,4.0108068 C7.471728,4.1059524 8.5924872,4.3193304 9.7251396,4.6467432 L9.7251396,4.6467432 C11.8225404,5.2532964 13.97451,6.163476 16.1215824,7.3520964 L16.1215824,7.3520964 C18.1588176,8.4707568 20.1155988,9.7895028 21.939456,11.270556 L21.939456,11.270556 C23.3617428,12.4332912 24.9981072,13.9129452 24.9981072,13.9129452 L24.9981072,13.9129452 C25.3066308,14.2221684 26.7436092,15.5374164 26.7436092,15.5374164 L26.7436092,15.5374164 C26.455374,14.5076052 25.6732212,13.5106752 25.6732212,13.5106752 L25.6732212,13.5106752 L25.671822,13.5113748 C24.7504488,12.3493392 23.9920824,11.7385884 22.600578,10.4946996 L22.600578,10.4946996 C20.79561,8.8877184 18.8423268,7.440246 16.7959968,6.1928592 L16.7959968,6.1928592 C14.6125452,4.8524256 12.3997104,3.7974288 10.2183576,3.0586512 L10.2183576,3.0586512 C8.9954568,2.6458872 7.7746548,2.3562528 6.5888328,2.1981432 L6.5888328,2.1981432 C5.5842072,2.074314 4.4046816,2.2044396 3.3496848,2.3667468 L3.3496848,2.3667468 L3.5798532,0.3875784 L0.143418,5.1693444 Z" id="Fill-25" fill="url(#linearGradient-7)" mask="url(#mask-6)"></path>
                </g>
                <path d="M23.3313102,1.18375264 C23.5243998,0.799672243 23.4082662,0.369418243 23.0472726,0.135751843 C22.6869786,-0.0951161572 22.249029,-0.0265553572 21.9775842,0.303655843 L7.8960354,16.7617458 L7.6539738,17.0443842 C7.5091566,17.2234818 7.4468922,17.455749 7.4832714,17.6824194 C7.518951,17.9090898 7.6497762,18.1112742 7.8428658,18.2365026 L10.6608546,20.0659566 L12.9009738,21.520425 C13.0241034,21.600879 13.0674786,21.7596882 13.0010166,21.8905134 L12.8974758,22.0968954 L11.5115682,24.6238506 C12.234255,25.3164546 13.776873,26.6086158 16.1268294,27.6510198 L18.0703182,25.8593442 L22.399443,21.2391858 C22.5687462,21.0593886 22.6464018,20.8159278 22.6121214,20.5710678 C22.577841,20.3262078 22.4365218,20.114229 22.224543,19.9869018 L16.5591822,16.5959406 C16.4304558,16.5196842 16.382883,16.3552782 16.4542422,16.2118602 L23.3313102,1.18375264 Z" id="Fill-28" fill="url(#linearGradient-8)"></path>
            </g>
        </g>
    </g>
</svg>