<svg width="197" height="59" viewBox="0 0 197 59" fill="none" xmlns="http://www.w3.org/2000/svg">
<path d="M73.7125 23.1528C72.3385 23.0979 71.1801 24.1667 71.1255 25.5396C71.1255 25.5441 71.125 25.5481 71.125 25.5531V27.9533H76.6689V32.0162H71.125V47.3423H66.1349V32.0162H62.8087V27.9533H66.1349V25.1805C66.1349 21.3032 69.4615 18.7205 73.1574 18.7205C74.8503 18.6844 76.4962 19.2765 77.7778 20.3831L75.9298 23.8909C75.2647 23.4615 74.5017 23.2069 73.7116 23.1519" fill="url(#paint0_linear)"/>
<path d="M159.156 23.0706C157.782 23.0156 156.623 24.0844 156.569 25.4573C156.569 25.4618 156.568 25.4659 156.568 25.4708V27.871H162.112V31.9339H156.568V47.26H151.578V31.9339H148.252V27.871H151.578V25.0982C151.578 21.2209 154.905 18.6382 158.601 18.6382C160.293 18.6022 161.939 19.1942 163.221 20.3008L161.373 23.8086C160.708 23.3792 159.945 23.1246 159.155 23.0697" fill="url(#paint1_linear)"/>
<path d="M97.7699 27.7663V47.1548H93.8895L93.1495 44.9397H92.598C91.8584 45.8629 90.1954 47.3399 86.8692 47.3399C81.6951 47.3399 79.1071 43.647 79.1071 38.2914V27.7663H84.4684V36.9987C84.4684 39.3994 84.6528 42.7228 87.9803 42.7228C89.6434 42.7228 92.4154 41.8 92.4154 36.8148V27.7663H97.7699Z" fill="url(#paint2_linear)"/>
<path d="M108.786 31.3968C107.122 31.3968 106.384 32.1357 106.384 33.0585C106.384 34.3517 108.047 34.7211 109.34 35.0897C112.852 35.8287 116.363 36.9362 116.363 40.9982C116.363 45.0597 113.036 47.2766 108.97 47.2766C104.535 47.2766 101.024 44.5068 100.838 40.4444H105.643C105.825 42.1116 107.295 43.3358 108.97 43.2141C111.002 43.2141 111.372 42.1066 111.372 41.3676C111.372 39.8906 110.078 39.5207 108.6 39.1517C106.382 38.6002 101.392 37.6747 101.392 33.2432C101.391 29.3655 105.09 27.5195 108.786 27.5195C113.221 27.5195 115.993 30.1049 116.178 33.4275H111.373C111.373 32.5043 110.821 31.3968 108.786 31.3968Z" fill="url(#paint3_linear)"/>
<path d="M137.33 38.8H123.1C123.651 41.7529 126.056 42.8609 128.274 42.8609C129.701 42.9302 131.076 42.3123 131.97 41.1993H136.96C135.593 44.9012 132.04 47.3416 128.089 47.2907C122.662 47.2749 118.274 42.8681 118.289 37.4469C118.289 37.3447 118.291 37.2415 118.295 37.1388C118.115 31.919 122.205 27.541 127.431 27.3609C127.589 27.355 127.747 27.3537 127.905 27.3564C132.895 27.3564 138.069 30.8637 137.33 38.8004V38.8ZM123.469 34.9242H132.155C131.768 33.0144 130.037 31.6781 128.089 31.7857C126.011 31.6497 124.107 32.9433 123.469 34.9242Z" fill="url(#paint4_linear)"/>
<path d="M142.934 47.2414C144.179 47.2414 145.188 46.2328 145.188 44.9885C145.188 43.7442 144.179 42.7356 142.934 42.7356C141.688 42.7356 140.679 43.7442 140.679 44.9885C140.679 46.2328 141.688 47.2414 142.934 47.2414Z" fill="url(#paint5_linear)"/>
<path d="M167.392 24.9517C168.637 24.9517 169.647 23.9431 169.647 22.6989C169.647 21.4547 168.637 20.4461 167.392 20.4461C166.147 20.4461 165.137 21.4547 165.137 22.6989C165.137 23.9431 166.147 24.9517 167.392 24.9517Z" fill="url(#paint6_linear)"/>
<path d="M170 27.5195H165.044V47.2774H170V27.5195Z" fill="url(#paint7_linear)"/>
<path d="M50.2705 37.8286C50.3207 36.5432 49.9688 35.1589 49.3656 33.5273C48.9634 32.2914 48.3099 31.0554 47.405 29.5722C45.9975 27.2979 44.1877 25.0237 41.9758 22.7C38.105 18.6954 33.3796 15.0863 28.0509 11.9715C25.4369 10.4884 22.7222 9.20292 20.0076 8.21412C16.7401 7.02756 13.9249 6.38484 11.2103 6.18708C10.9087 6.18708 10.6071 6.18708 10.2552 6.18708C9.04868 6.18708 7.79192 6.23652 6.48489 6.63204C4.72542 7.17588 3.26758 8.16468 2.31244 9.549C1.2065 11.23 1.10595 13.1581 1.25676 14.493C1.3573 15.4323 1.75947 16.9155 2.16163 18.0032L0 17.7066L6.03246 22.5517L5.58002 14.9379L4.4238 16.8167C4.17245 16.0751 3.87083 14.8391 3.82056 14.1963C3.61947 12.8615 3.82056 11.6749 4.37353 10.8344C4.97678 9.89507 5.93191 9.20291 7.18868 8.8074C8.3449 8.41188 9.65193 8.36244 11.1098 8.313C13.6233 8.41188 16.3379 8.95572 19.4044 9.94451C22.0185 10.8344 24.6828 11.9715 27.2969 13.4053C32.5753 16.2234 37.2504 19.6347 41.2218 23.4416C43.4337 25.6664 45.2434 27.7923 46.7013 30.0171C47.6061 31.4014 48.2596 32.588 48.7121 33.7745C49.3656 35.3072 49.6169 36.6421 49.7175 37.8286C49.7175 38.0758 49.9688 39.1141 49.9688 39.1141C49.9688 39.1141 50.2705 38.0758 50.2705 37.8286Z" fill="url(#paint8_linear)"/>
<path d="M5.2384 56.9056C4.83939 57.4739 4.85853 58.1836 5.3382 58.645C5.48825 58.8154 5.71271 58.9661 5.95129 58.9869C6.23477 59.0379 6.60677 58.9393 6.87361 58.7003L19.6704 47.7816C17.3515 46.2943 15.5957 44.2794 14.6646 43.0968L5.2384 56.9056Z" fill="url(#paint9_linear)"/>
<path d="M37.4388 3.35075L14.3051 26.2751L13.9184 26.6616C13.6703 26.8995 13.5788 27.2264 13.5396 27.5829C13.5526 27.9691 13.7276 28.2957 13.9312 28.563L20.2198 34.559C20.3478 34.7074 20.366 34.9451 20.2511 35.1828L20.0551 35.4504L17.5551 39.1066C18.4456 40.2942 20.2553 42.61 23.3266 44.6574L26.3697 42.2188L33.3599 35.8851C33.689 35.6175 33.8092 35.2311 33.8485 34.8746C33.8355 34.4884 33.6893 34.1023 33.4568 33.8945L26.3273 27.5724C26.1706 27.4834 26.1811 27.1863 26.2673 27.008L39.1128 4.98335C39.4524 4.41861 39.3977 3.70565 38.9328 3.2901C38.7526 3.112 38.5959 3.023 38.3295 3.02322C38.0396 2.93433 37.687 3.11287 37.4388 3.35075Z" fill="url(#paint10_linear)"/>
<path d="M5.77858 24.8077C5.72915 26.1206 6.07513 27.5345 6.66824 29.2009C7.06364 30.4633 7.70617 31.7257 8.59583 33.2406C9.97975 35.5634 11.7591 37.8863 13.9338 40.2596C17.7396 44.3498 22.3856 48.036 27.6247 51.2173C30.1948 52.7322 32.8638 54.0451 35.5328 55.055C38.7454 56.2669 41.5133 56.9234 44.1822 57.1254C44.4788 57.1254 44.7754 57.1254 45.1213 57.1254C46.3075 57.1254 47.5432 57.0749 48.8283 56.6709C50.5581 56.1154 51.9915 55.1055 52.9306 53.6916C54.0179 51.9747 54.1168 50.0054 53.9685 48.642C53.8697 47.6826 53.4743 46.1677 53.0789 45.0567L55.2042 45.3597L49.2731 40.4111L49.7179 48.1875L50.8547 46.2687C51.1018 47.0261 51.3984 48.2885 51.4478 48.945C51.6455 50.3084 51.4478 51.5203 50.9041 52.3787C50.311 53.3381 49.3719 54.0451 48.1363 54.4491C46.9995 54.853 45.7144 54.9035 44.2811 54.954C41.8098 54.853 39.1408 54.2976 36.1259 53.2876C33.5557 52.3787 30.9362 51.2173 28.3661 49.7529C23.1764 46.8746 18.5798 43.3904 14.6752 39.5022C12.5005 37.2298 10.7211 35.0585 9.28779 32.7861C8.39813 31.3722 7.7556 30.1603 7.31077 28.9484C6.66824 27.383 6.42111 26.0196 6.32226 24.8077C6.32226 24.5552 6.07513 23.4948 6.07513 23.4948C6.07513 23.4948 5.77858 24.5552 5.77858 24.8077Z" fill="url(#paint11_linear)"/>
<path d="M170.759 12H174.487C176.447 12 177.491 10.9773 177.491 9.58807C177.491 8.29688 176.567 7.51705 175.574 7.47017V7.38494C176.482 7.1804 177.151 6.53693 177.151 5.50994C177.151 4.2017 176.179 3.27273 174.253 3.27273H170.759V12ZM172.604 10.4915V8.1733H174.151C175.037 8.1733 175.587 8.68466 175.587 9.40483C175.587 10.0611 175.139 10.4915 174.108 10.4915H172.604ZM172.604 6.92472V4.7642H174.006C174.824 4.7642 175.288 5.18608 175.288 5.81676C175.288 6.5071 174.726 6.92472 173.972 6.92472H172.604ZM181.641 12.1278C183.26 12.1278 184.351 11.3395 184.607 10.125L182.928 10.0142C182.745 10.5128 182.276 10.7727 181.671 10.7727C180.763 10.7727 180.188 10.1719 180.188 9.19602V9.19176H184.645V8.69318C184.645 6.46875 183.299 5.36932 181.569 5.36932C179.642 5.36932 178.394 6.73722 178.394 8.7571C178.394 10.8324 179.625 12.1278 181.641 12.1278ZM180.188 8.06676C180.226 7.32102 180.793 6.72443 181.598 6.72443C182.387 6.72443 182.932 7.28693 182.936 8.06676H180.188ZM189.311 5.45455H188.08V3.88636H186.265V5.45455H185.37V6.81818H186.265V10.2273C186.256 11.5099 187.13 12.1449 188.446 12.0895C188.915 12.0724 189.248 11.9787 189.431 11.919L189.145 10.5682C189.056 10.5852 188.864 10.6278 188.694 10.6278C188.331 10.6278 188.08 10.4915 188.08 9.98864V6.81818H189.311V5.45455ZM192.36 12.1236C193.328 12.1236 193.954 11.7017 194.274 11.0923H194.325V12H196.047V7.58523C196.047 6.02557 194.725 5.36932 193.268 5.36932C191.7 5.36932 190.669 6.11932 190.417 7.3125L192.096 7.44886C192.22 7.0142 192.608 6.6946 193.26 6.6946C193.877 6.6946 194.231 7.00568 194.231 7.54261V7.56818C194.231 7.99006 193.784 8.04545 192.646 8.15625C191.35 8.27557 190.187 8.71023 190.187 10.1719C190.187 11.4673 191.112 12.1236 192.36 12.1236ZM192.88 10.8707C192.322 10.8707 191.922 10.6108 191.922 10.1122C191.922 9.60085 192.343 9.34943 192.983 9.25994C193.379 9.20455 194.027 9.1108 194.244 8.96591V9.66051C194.244 10.3466 193.677 10.8707 192.88 10.8707Z" fill="#B5B9D3"/>
<defs>
<linearGradient id="paint0_linear" x1="-2.07668e-07" y1="31.0658" x2="169.928" y2="31.0658" gradientUnits="userSpaceOnUse">
<stop stop-color="#FEF16E"/>
<stop offset="1" stop-color="#B1FFBF"/>
</linearGradient>
<linearGradient id="paint1_linear" x1="-2.07668e-07" y1="31.0658" x2="169.928" y2="31.0658" gradientUnits="userSpaceOnUse">
<stop stop-color="#FEF16E"/>
<stop offset="1" stop-color="#B1FFBF"/>
</linearGradient>
<linearGradient id="paint2_linear" x1="-2.07668e-07" y1="31.0658" x2="169.928" y2="31.0658" gradientUnits="userSpaceOnUse">
<stop stop-color="#FEF16E"/>
<stop offset="1" stop-color="#B1FFBF"/>
</linearGradient>
<linearGradient id="paint3_linear" x1="-2.07668e-07" y1="31.0658" x2="169.928" y2="31.0658" gradientUnits="userSpaceOnUse">
<stop stop-color="#FEF16E"/>
<stop offset="1" stop-color="#B1FFBF"/>
</linearGradient>
<linearGradient id="paint4_linear" x1="-2.07668e-07" y1="31.0658" x2="169.928" y2="31.0658" gradientUnits="userSpaceOnUse">
<stop stop-color="#FEF16E"/>
<stop offset="1" stop-color="#B1FFBF"/>
</linearGradient>
<linearGradient id="paint5_linear" x1="-2.07668e-07" y1="31.0658" x2="169.928" y2="31.0658" gradientUnits="userSpaceOnUse">
<stop stop-color="#FEF16E"/>
<stop offset="1" stop-color="#B1FFBF"/>
</linearGradient>
<linearGradient id="paint6_linear" x1="-2.07668e-07" y1="31.0658" x2="169.928" y2="31.0658" gradientUnits="userSpaceOnUse">
<stop stop-color="#FEF16E"/>
<stop offset="1" stop-color="#B1FFBF"/>
</linearGradient>
<linearGradient id="paint7_linear" x1="-2.07668e-07" y1="31.0658" x2="169.928" y2="31.0658" gradientUnits="userSpaceOnUse">
<stop stop-color="#FEF16E"/>
<stop offset="1" stop-color="#B1FFBF"/>
</linearGradient>
<linearGradient id="paint8_linear" x1="-2.07668e-07" y1="31.0658" x2="169.928" y2="31.0658" gradientUnits="userSpaceOnUse">
<stop stop-color="#FEF16E"/>
<stop offset="1" stop-color="#B1FFBF"/>
</linearGradient>
<linearGradient id="paint9_linear" x1="-2.07668e-07" y1="31.0658" x2="169.928" y2="31.0658" gradientUnits="userSpaceOnUse">
<stop stop-color="#FEF16E"/>
<stop offset="1" stop-color="#B1FFBF"/>
</linearGradient>
<linearGradient id="paint10_linear" x1="-2.07668e-07" y1="31.0658" x2="169.928" y2="31.0658" gradientUnits="userSpaceOnUse">
<stop stop-color="#FEF16E"/>
<stop offset="1" stop-color="#B1FFBF"/>
</linearGradient>
<linearGradient id="paint11_linear" x1="-2.07668e-07" y1="31.0658" x2="169.928" y2="31.0658" gradientUnits="userSpaceOnUse">
<stop stop-color="#FEF16E"/>
<stop offset="1" stop-color="#B1FFBF"/>
</linearGradient>
</defs>
</svg>
