<svg xmlns="http://www.w3.org/2000/svg" width="24" height="24" viewBox="0 0 24 24" fill="none">
<path fill-rule="evenodd" clip-rule="evenodd" d="M0 5C0 2.23858 2.23858 0 5 0H19C21.7614 0 24 2.23858 24 5V19C24 21.7614 21.7614 24 19 24H5C2.23858 24 0 21.7614 0 19V5ZM12 4.00008C7.58258 4.00008 3.99999 7.5697 3.99999 11.9734C3.99999 15.4961 6.29252 18.4843 9.47098 19.5388C9.87068 19.6129 10.0175 19.366 10.0175 19.1554C10.0175 19.0692 10.016 18.893 10.014 18.6641L10.014 18.6637L10.014 18.6628C10.0116 18.3869 10.0085 18.0347 10.0066 17.671C7.78123 18.1532 7.31169 16.7299 7.31169 16.7299C6.94743 15.8086 6.42337 15.5634 6.42337 15.5634C5.69724 15.0686 6.47788 15.0788 6.47788 15.0788C7.28136 15.1351 7.70422 15.9006 7.70422 15.9006C8.41774 17.1195 9.57559 16.7669 10.0322 16.5632C10.1041 16.0483 10.3113 15.6962 10.5402 15.4972C8.76326 15.2958 6.8953 14.6118 6.8953 11.5567C6.8953 10.6863 7.2081 9.97514 7.71956 9.41648C7.63676 9.21577 7.3628 8.40513 7.79725 7.3065C7.79725 7.3065 8.46885 7.09221 9.99778 8.12427C10.636 7.94734 11.3202 7.8587 12 7.85565C12.6798 7.8587 13.3647 7.94734 14.0039 8.12427C15.5311 7.09221 16.2017 7.3065 16.2017 7.3065C16.6372 8.40513 16.3632 9.21577 16.2804 9.41648C16.7932 9.97514 17.1037 10.6863 17.1037 11.5567C17.1037 14.6193 15.2323 15.2934 13.4509 15.4907C13.7378 15.7379 13.9933 16.2232 13.9933 16.9673C13.9933 17.6801 13.9892 18.3001 13.9865 18.7114V18.7116V18.7117L13.9865 18.712C13.9852 18.9159 13.9841 19.0684 13.9841 19.1554C13.9841 19.3677 14.1283 19.6159 14.5338 19.5378C17.7105 18.4826 20 15.4948 20 11.9734C20 7.5697 16.4181 4.00008 12 4.00008ZM6.8934 15.4721C6.9503 15.4992 7.013 15.4873 7.03038 15.4476C7.05048 15.4082 7.01743 15.3535 6.9595 15.3274C6.90123 15.3002 6.83888 15.3118 6.8215 15.3525C6.80276 15.3919 6.83513 15.4459 6.8934 15.4721ZM7.35453 15.808C7.31636 15.8434 7.24174 15.8267 7.19131 15.771C7.13884 15.7157 7.12895 15.6413 7.1678 15.6053C7.20699 15.5703 7.27922 15.5866 7.3317 15.6423C7.38417 15.6987 7.39439 15.7724 7.35453 15.808ZM7.49105 16.1984C7.5408 16.2694 7.62088 16.3013 7.66995 16.267C7.72003 16.2321 7.72003 16.1472 7.67097 16.0755C7.62088 16.0052 7.54183 15.9743 7.49242 16.0083C7.44233 16.0422 7.44233 16.1275 7.49105 16.1984ZM8.1018 16.7107C8.05784 16.7589 7.96447 16.746 7.89598 16.6801C7.82613 16.6159 7.80671 16.5246 7.85067 16.4764C7.8953 16.4281 7.98901 16.4417 8.05784 16.5069C8.12735 16.5711 8.14848 16.6628 8.1018 16.7107ZM8.49822 17.0323C8.58852 17.0592 8.67847 17.031 8.69789 16.9685C8.71663 16.905 8.65735 16.8323 8.56705 16.8051C8.47573 16.7769 8.38543 16.8062 8.36669 16.869C8.34829 16.9321 8.40724 17.0052 8.49822 17.0323ZM9.35224 17.016C9.35429 17.0819 9.27762 17.1363 9.18255 17.1376C9.0868 17.1397 9.00945 17.0867 9.00843 17.0222C9.00843 16.9553 9.0834 16.9016 9.17915 16.8999C9.27421 16.8979 9.35224 16.9512 9.35224 17.016ZM9.8125 17.0607C9.90689 17.0431 9.97299 16.9768 9.96175 16.913C9.94948 16.8478 9.86497 16.8091 9.77025 16.8254C9.67757 16.8427 9.61044 16.9082 9.62168 16.9745C9.63361 17.0376 9.71982 17.0774 9.8125 17.0607Z" fill="#8F9197"/>
</svg>