<svg xmlns="http://www.w3.org/2000/svg" width="135" height="40" viewBox="0 0 135 40" fill="none">
<path d="M129.217 0H4.98485C2.23179 0 0 2.24455 0 5.01333V34.976C0 37.7448 2.23179 39.9893 4.98485 39.9893H129.217C131.97 39.9893 134.202 37.7448 134.202 34.976V5.01333C134.202 2.24455 131.97 0 129.217 0Z" fill="black"/>
<path d="M129.217 0.782227C130.324 0.782227 131.385 1.22425 132.167 2.01107C132.949 2.79789 133.389 3.86505 133.389 4.97778V34.9867C133.389 36.0994 132.949 37.1665 132.167 37.9534C131.385 38.7402 130.324 39.1822 129.217 39.1822H4.94949C3.84309 39.1822 2.78199 38.7402 1.99964 37.9534C1.21729 37.1665 0.777782 36.0994 0.777782 34.9867V4.97778C0.777782 3.86505 1.21729 2.79789 1.99964 2.01107C2.78199 1.22425 3.84309 0.782227 4.94949 0.782227H129.217ZM129.217 0H4.94949C3.63681 0 2.37789 0.524439 1.44968 1.45795C0.52147 2.39147 0 3.65759 0 4.97778V34.9867C0 36.3069 0.52147 37.573 1.44968 38.5065C2.37789 39.44 3.63681 39.9645 4.94949 39.9645H129.217C130.53 39.9645 131.789 39.44 132.717 38.5065C133.645 37.573 134.167 36.3069 134.167 34.9867V4.97778C134.167 3.65759 133.645 2.39147 132.717 1.45795C131.789 0.524439 130.53 0 129.217 0V0Z" fill="#38D989"/>
<path d="M47.126 10.2402C47.1426 10.6053 47.0854 10.97 46.9578 11.3123C46.8302 11.6545 46.6348 11.9672 46.3836 12.2313C46.1022 12.5278 45.7611 12.7605 45.3831 12.9138C45.0051 13.0671 44.5989 13.1374 44.1917 13.1202C43.374 13.1216 42.5878 12.8028 41.9998 12.2313C41.7029 11.9406 41.4682 11.592 41.3101 11.2068C41.1521 10.8216 41.074 10.408 41.0806 9.99129C41.074 9.57463 41.1521 9.16101 41.3101 8.77581C41.4682 8.39061 41.7029 8.04196 41.9998 7.75129C42.2852 7.46012 42.627 7.231 43.004 7.0781C43.3811 6.9252 43.7853 6.85178 44.1917 6.8624C44.6171 6.85525 45.0391 6.94014 45.4291 7.11129C45.7885 7.25259 46.1052 7.48538 46.3483 7.78684L45.818 8.28462C45.6188 8.0492 45.3686 7.86274 45.0868 7.73949C44.8049 7.61624 44.4987 7.55946 44.1917 7.57351C43.5827 7.57663 42.9991 7.81908 42.5654 8.24907C42.3344 8.47469 42.1523 8.74595 42.0307 9.04578C41.909 9.34562 41.8503 9.66754 41.8584 9.99129C41.8487 10.31 41.9067 10.6271 42.0286 10.9214C42.1506 11.2157 42.3336 11.4805 42.5654 11.698C42.7754 11.9174 43.0283 12.0908 43.3082 12.207C43.5881 12.3233 43.8889 12.38 44.1917 12.3735C44.5001 12.3828 44.807 12.3275 45.0931 12.2112C45.3791 12.0949 45.638 11.9202 45.8533 11.698C46.162 11.3709 46.3385 10.9399 46.3483 10.4891H44.1917V9.77796H47.0907C47.0907 9.92018 47.126 10.098 47.126 10.2402Z" fill="white" stroke="white" stroke-width="0.2" stroke-miterlimit="10"/>
<path d="M51.6879 7.71582H49.001V9.63581H51.4404V10.3469H49.001V12.2314H51.6879V12.978H48.2233V6.96915H51.6879V7.71582Z" fill="white" stroke="white" stroke-width="0.2" stroke-miterlimit="10"/>
<path d="M54.9394 12.978H54.1616V7.71582H52.5V6.96915H56.601V7.71582H54.9394V12.978Z" fill="white" stroke="white" stroke-width="0.2" stroke-miterlimit="10"/>
<path d="M59.5707 12.978V6.96915H60.3485V12.978H59.5707Z" fill="white" stroke="white" stroke-width="0.2" stroke-miterlimit="10"/>
<path d="M63.7434 12.978H62.9656V7.71582H61.304V6.96915H65.405V7.71582H63.7434V12.978Z" fill="white" stroke="white" stroke-width="0.2" stroke-miterlimit="10"/>
<path d="M73.1476 12.1956C72.868 12.4967 72.528 12.7348 72.1502 12.8941C71.7724 13.0535 71.3653 13.1305 70.9557 13.1201C70.5521 13.1255 70.1517 13.046 69.7804 12.8869C69.409 12.7277 69.0748 12.4922 68.7992 12.1956C68.5097 11.9086 68.2818 11.5648 68.1298 11.1856C67.9778 10.8064 67.9048 10.3999 67.9153 9.99117C67.902 9.5768 67.9736 9.16409 68.1256 8.77874C68.2777 8.39338 68.507 8.0436 68.7992 7.75116C69.0766 7.45923 69.4119 7.22923 69.7835 7.07609C70.155 6.92295 70.5544 6.8501 70.9557 6.86228C71.3624 6.84951 71.7673 6.92195 72.1446 7.07497C72.522 7.228 72.8635 7.45827 73.1476 7.75116C73.4399 8.0436 73.6691 8.39338 73.8212 8.77874C73.9732 9.16409 74.0448 9.5768 74.0315 9.99117C74.042 10.3999 73.969 10.8064 73.817 11.1856C73.665 11.5648 73.4372 11.9086 73.1476 12.1956V12.1956ZM69.3648 11.6978C69.5652 11.92 69.8113 12.0956 70.0861 12.2123C70.3609 12.3289 70.6577 12.3839 70.9557 12.3734C71.2591 12.3844 71.5612 12.3297 71.8418 12.2132C72.1224 12.0967 72.3748 11.9209 72.582 11.6978C72.8074 11.4772 72.9839 11.211 73.0996 10.9169C73.2154 10.6227 73.2679 10.3072 73.2537 9.99117C73.2664 9.66999 73.2133 9.34961 73.0977 9.04992C72.9822 8.75022 72.8066 8.4776 72.582 8.24895C72.3695 8.03283 72.1161 7.8617 71.8368 7.74567C71.5575 7.62965 71.2579 7.57106 70.9557 7.57339C70.6589 7.57178 70.3648 7.63084 70.0913 7.74697C69.8179 7.86309 69.5707 8.03387 69.3648 8.24895C69.1402 8.4776 68.9646 8.75022 68.8491 9.04992C68.7336 9.34961 68.6805 9.66999 68.6931 9.99117C68.6789 10.3072 68.7314 10.6227 68.8472 10.9169C68.9629 11.211 69.1394 11.4772 69.3648 11.6978V11.6978Z" fill="white" stroke="white" stroke-width="0.2" stroke-miterlimit="10"/>
<path d="M75.1263 12.978V6.96915H76.0455L78.9444 11.6625H78.9798V6.96915H79.7576V12.978H78.9444L75.9041 8.10692H75.8687V12.978H75.1263Z" fill="white" stroke="white" stroke-width="0.2" stroke-miterlimit="10"/>
<path d="M67.703 21.7245C67.1433 21.7148 66.5873 21.8186 66.0683 22.0296C65.5492 22.2407 65.0777 22.5546 64.6819 22.9527C64.286 23.3508 63.9739 23.825 63.7641 24.347C63.5542 24.869 63.451 25.4282 63.4606 25.9911C63.4558 26.5511 63.5625 27.1064 63.7745 27.6243C63.9864 28.1421 64.2993 28.6121 64.6947 29.0064C65.0901 29.4007 65.5599 29.7115 66.0766 29.9203C66.5933 30.1291 67.1463 30.2318 67.703 30.2222C68.2598 30.2318 68.8128 30.1291 69.3295 29.9203C69.8461 29.7115 70.316 29.4007 70.7114 29.0064C71.1068 28.6121 71.4197 28.1421 71.6316 27.6243C71.8436 27.1064 71.9503 26.5511 71.9455 25.9911C71.955 25.4282 71.8518 24.869 71.642 24.347C71.4322 23.825 71.1201 23.3508 70.7242 22.9527C70.3283 22.5546 69.8568 22.2407 69.3378 22.0296C68.8188 21.8186 68.2628 21.7148 67.703 21.7245V21.7245ZM67.703 28.5511C67.3796 28.542 67.0611 28.4683 66.7663 28.3342C66.4714 28.2001 66.206 28.0083 65.9856 27.7701C65.7652 27.5318 65.594 27.2518 65.4822 26.9464C65.3704 26.641 65.3202 26.3163 65.3344 25.9911C65.3344 24.4622 66.4303 23.3956 67.703 23.3956C68.9758 23.3956 70.1071 24.4622 70.1071 25.9911C70.1213 26.3192 70.0699 26.6468 69.9559 26.9545C69.8419 27.2622 69.6677 27.5438 69.4435 27.7825C69.2193 28.0213 68.9497 28.2123 68.6508 28.3443C68.3518 28.4764 68.0295 28.5467 67.703 28.5511V28.5511ZM58.4404 21.7245C57.8807 21.7148 57.3247 21.8186 56.8057 22.0296C56.2866 22.2407 55.8151 22.5546 55.4193 22.9527C55.0234 23.3508 54.7112 23.825 54.5014 24.347C54.2916 24.869 54.1884 25.4282 54.198 25.9911C54.1932 26.5511 54.2999 27.1064 54.5119 27.6243C54.7238 28.1421 55.0367 28.6121 55.4321 29.0064C55.8275 29.4007 56.2973 29.7115 56.814 29.9203C57.3307 30.1291 57.8837 30.2318 58.4404 30.2222C59.0001 30.2366 59.5569 30.1375 60.0777 29.9308C60.5985 29.7242 61.0726 29.4142 61.4718 29.0194C61.871 28.6246 62.187 28.153 62.4012 27.6327C62.6153 27.1125 62.7231 26.5542 62.7182 25.9911C62.7279 25.4251 62.6237 24.863 62.4117 24.3386C62.1997 23.8141 61.8843 23.3383 61.4847 22.9397C61.085 22.541 60.6093 22.2279 60.0861 22.019C59.5629 21.8102 59.0031 21.71 58.4404 21.7245V21.7245ZM58.4404 28.5511C58.1169 28.542 57.7985 28.4683 57.5037 28.3342C57.2088 28.2001 56.9434 28.0083 56.723 27.7701C56.5025 27.5318 56.3314 27.2518 56.2196 26.9464C56.1078 26.641 56.0575 26.3163 56.0717 25.9911C56.0717 24.4622 57.1677 23.3956 58.4404 23.3956C59.7131 23.3956 60.8445 24.4622 60.8445 25.9911C60.8587 26.3192 60.8073 26.6468 60.6933 26.9545C60.5793 27.2622 60.405 27.5438 60.1808 27.7825C59.9567 28.0213 59.6871 28.2123 59.3881 28.3443C59.0892 28.4764 58.7669 28.5467 58.4404 28.5511V28.5511ZM47.4455 23.04V24.8534H51.7232C51.6715 25.6884 51.3343 26.4798 50.7687 27.0934C50.3393 27.5395 49.8218 27.8903 49.2494 28.123C48.677 28.3557 48.0625 28.4652 47.4455 28.4445C46.822 28.4445 46.2047 28.3199 45.6296 28.0778C45.0545 27.8357 44.5329 27.481 44.0954 27.0344C43.6578 26.5877 43.313 26.0579 43.0809 25.476C42.8488 24.894 42.7341 24.2714 42.7435 23.6445C42.7341 23.0175 42.8488 22.3949 43.0809 21.813C43.313 21.231 43.6578 20.7013 44.0954 20.2546C44.5329 19.8079 45.0545 19.4532 45.6296 19.2111C46.2047 18.969 46.822 18.8444 47.4455 18.8445C48.6528 18.8353 49.8174 19.2936 50.698 20.1245L51.9354 18.8445C51.3465 18.2544 50.6454 17.7896 49.874 17.4781C49.1026 17.1665 48.2766 17.0145 47.4455 17.0311C45.6949 17.031 44.015 17.7255 42.7705 18.9638C41.5261 20.202 40.8176 21.884 40.799 23.6445C40.8268 25.3987 41.5394 27.0717 42.7828 28.3023C44.0263 29.5329 45.7009 30.2225 47.4455 30.2222C48.2976 30.2554 49.1472 30.1079 49.939 29.7894C50.7308 29.4709 51.4471 28.9884 52.0414 28.3734C53.2081 27.2 53.5616 25.5289 53.5616 24.1778C53.5767 23.7971 53.553 23.4159 53.4909 23.04H47.4455ZM92.4859 24.4267C92.1323 23.5023 91.0717 21.7245 88.8798 21.7245C86.6879 21.7245 84.8849 23.4667 84.8849 25.9911C84.8705 26.5477 84.9683 27.1015 85.1723 27.619C85.3764 28.1366 85.6826 28.6072 86.0724 29.0025C86.4622 29.3979 86.9276 29.7098 87.4404 29.9194C87.9533 30.129 88.5031 30.232 89.0566 30.2222C89.7557 30.2312 90.4458 30.0634 91.0636 29.7341C91.6813 29.4048 92.2069 28.9247 92.5919 28.3378L91.1424 27.3778C90.9294 27.7418 90.624 28.0423 90.2574 28.2484C89.8909 28.4546 89.4765 28.5591 89.0566 28.5511C88.6277 28.563 88.2049 28.448 87.8404 28.2205C87.4759 27.993 87.1858 27.6629 87.0061 27.2711L92.6626 24.9245L92.4859 24.4267ZM86.7232 25.8489C86.7041 25.5406 86.7457 25.2316 86.8456 24.9395C86.9454 24.6474 87.1017 24.378 87.3053 24.1467C87.509 23.9155 87.756 23.727 88.0323 23.592C88.3085 23.457 88.6086 23.3782 88.9152 23.36C89.2406 23.3443 89.5637 23.423 89.8458 23.587C90.1279 23.7509 90.3571 23.993 90.5061 24.2845L86.7232 25.8489ZM82.1273 29.9734H83.9657V17.4934H82.1273V29.9734ZM79.0869 22.6845H79.0162C78.7343 22.3742 78.3898 22.128 78.0057 21.9624C77.6216 21.7969 77.2067 21.7157 76.7889 21.7245C74.6677 21.7245 72.7232 23.6089 72.7232 25.9911C72.7226 27.0891 73.1464 28.1443 73.9051 28.9338C74.6637 29.7233 75.6978 30.1853 76.7889 30.2222C77.2077 30.2382 77.6248 30.1603 78.0099 29.9943C78.3951 29.8283 78.7388 29.5782 79.0162 29.2622H79.0869V29.8667C79.0869 31.5022 78.203 32.3911 76.8243 32.3911C76.3607 32.3732 75.9125 32.2188 75.5354 31.947C75.1583 31.6752 74.8689 31.298 74.703 30.8622L73.0768 31.5378C73.3799 32.2864 73.8987 32.9268 74.5665 33.3766C75.2343 33.8265 76.0205 34.0652 76.8243 34.0622C79.0162 34.0622 80.8546 32.7467 80.8546 29.6178V21.9734H79.0869V22.6845ZM76.9657 28.5511C75.6576 28.5511 74.597 27.4845 74.597 25.9911C74.597 24.4978 75.6576 23.3956 76.9657 23.3956C78.2738 23.3956 79.1929 24.4978 79.1929 25.9911C79.1929 27.4845 78.203 28.5511 76.9657 28.5511V28.5511ZM101.183 17.4934H96.7283V29.9734H98.602V25.2445H101.183C103.233 25.2445 105.249 23.7511 105.249 21.3689C105.249 18.9867 103.233 17.4934 101.183 17.4934V17.4934ZM101.218 23.5022H98.602V19.2356H101.218C101.501 19.2309 101.783 19.2823 102.046 19.387C102.31 19.4917 102.55 19.6475 102.754 19.8456C102.957 20.0437 103.12 20.2802 103.233 20.5416C103.345 20.803 103.406 21.0841 103.41 21.3689C103.406 21.6537 103.345 21.9349 103.233 22.1963C103.12 22.4576 102.957 22.6941 102.754 22.8922C102.55 23.0903 102.31 23.2462 102.046 23.3508C101.783 23.4555 101.501 23.5069 101.218 23.5022ZM112.708 21.7245C111.365 21.7245 109.951 22.2934 109.385 23.6089L111.046 24.32C111.4 23.6089 112.036 23.3956 112.743 23.3956C113.451 23.3956 114.653 23.9645 114.688 24.9956V25.1378C114.094 24.8052 113.424 24.6337 112.743 24.64C110.976 24.64 109.173 25.6356 109.173 27.4489C109.173 29.2623 110.622 30.2222 112.248 30.2222C112.718 30.2481 113.186 30.1461 113.603 29.9272C114.02 29.7082 114.37 29.3802 114.617 28.9778H114.688V29.9734H116.456V25.1734C116.456 22.9334 114.829 21.7245 112.708 21.7245ZM112.461 28.5511C111.86 28.5511 111.011 28.2667 111.011 27.4845C111.011 26.7022 112.072 26.1689 112.991 26.1689C113.585 26.1526 114.172 26.3002 114.688 26.5956C114.612 27.136 114.345 27.6308 113.936 27.9898C113.527 28.3488 113.003 28.548 112.461 28.5511V28.5511ZM122.996 21.9734L120.875 27.4134H120.804L118.577 21.9734H116.597L119.92 29.5467L118.011 33.7778H119.956L125.046 21.9734H122.996ZM106.274 29.9734H108.147V17.4934H106.274V29.9734Z" fill="white"/>
<path d="M10.3595 7.53779C10.0338 7.92289 9.86911 8.41986 9.89989 8.92445V31.04C9.86911 31.5446 10.0338 32.0416 10.3595 32.4267L10.4302 32.4978L22.7332 20.1244V19.84L10.4302 7.46667L10.3595 7.53779Z" fill="url(#paint0_linear_3311_12104)"/>
<path d="M26.8682 24.2488L22.7318 20.1243V19.8399L26.8682 15.7155H26.9389L31.8177 18.4888C33.1965 19.3066 33.1965 20.5866 31.8177 21.4043L26.9389 24.1777L26.8682 24.2488Z" fill="url(#paint1_linear_3311_12104)"/>
<path d="M26.9389 24.2132L22.7318 19.9821L10.3581 32.4266C10.8177 32.9243 11.5601 32.9955 12.4086 32.4977L26.9389 24.2132" fill="url(#paint2_linear_3311_12104)"/>
<path d="M26.9389 15.7509L12.4086 7.46651C11.5601 6.96873 10.8177 7.03984 10.3581 7.53762L22.7318 19.9821L26.9389 15.7509Z" fill="url(#paint3_linear_3311_12104)"/>
<path opacity="0.2" d="M26.8682 24.1068L12.4086 32.3557C11.6308 32.8179 10.8884 32.7823 10.4288 32.3557L10.3581 32.4268L10.4288 32.4979C10.8884 32.9246 11.6308 32.9601 12.4086 32.4979L26.9389 24.2134L26.8682 24.1068Z" fill="black"/>
<path opacity="0.12" d="M10.3595 32.2842C10.0338 31.8991 9.86911 31.4021 9.89989 30.8976V31.0398C9.86911 31.5444 10.0338 32.0413 10.3595 32.4264L10.4302 32.3553L10.3595 32.2842Z" fill="black"/>
<path opacity="0.12" d="M31.8182 21.2621L26.8687 24.1066L26.9394 24.2132L31.8182 21.4399C32.4899 21.0132 32.8435 20.5155 32.8435 19.9821C32.8081 20.4443 32.4546 20.9066 31.8182 21.2621Z" fill="black"/>
<path opacity="0.25" d="M12.4091 7.60887L31.8182 18.6667C32.4545 19.0578 32.8081 19.52 32.8434 19.9822C32.8434 19.4489 32.4899 18.9511 31.8182 18.5244L12.4091 7.46665C11.0303 6.68443 9.89899 7.32443 9.89899 8.92443V9.06665C9.89899 7.46665 11.0303 6.82665 12.4091 7.60887Z" fill="white"/>
<defs>
<linearGradient id="paint0_linear_3311_12104" x1="21.6549" y1="8.69334" x2="4.88007" y2="25.3764" gradientUnits="userSpaceOnUse">
<stop stop-color="#00A0FF"/>
<stop offset="0.01" stop-color="#00A1FF"/>
<stop offset="0.26" stop-color="#00BEFF"/>
<stop offset="0.51" stop-color="#00D2FF"/>
<stop offset="0.76" stop-color="#00DFFF"/>
<stop offset="1" stop-color="#00E3FF"/>
</linearGradient>
<linearGradient id="paint1_linear_3311_12104" x1="33.6172" y1="19.9821" x2="9.56615" y2="19.9821" gradientUnits="userSpaceOnUse">
<stop stop-color="#FFE000"/>
<stop offset="0.41" stop-color="#FFBD00"/>
<stop offset="0.78" stop-color="#FFA500"/>
<stop offset="1" stop-color="#FF9C00"/>
</linearGradient>
<linearGradient id="paint2_linear_3311_12104" x1="24.6657" y1="22.2754" x2="1.91404" y2="44.8978" gradientUnits="userSpaceOnUse">
<stop stop-color="#FF3A44"/>
<stop offset="1" stop-color="#C31162"/>
</linearGradient>
<linearGradient id="paint3_linear_3311_12104" x1="7.23991" y1="0.163395" x2="17.398" y2="10.2637" gradientUnits="userSpaceOnUse">
<stop stop-color="#32A071"/>
<stop offset="0.07" stop-color="#2DA771"/>
<stop offset="0.48" stop-color="#15CF74"/>
<stop offset="0.8" stop-color="#06E775"/>
<stop offset="1" stop-color="#00F076"/>
</linearGradient>
</defs>
</svg>