<svg width="24" height="24" viewBox="0 0 24 24" fill="none" xmlns="http://www.w3.org/2000/svg">
<path d="M2.86938 8.86973L2.38223 7.99642C1.98456 8.21825 1.78697 8.68072 1.90157 9.12141C2.01618 9.56211 2.41403 9.86973 2.86938 9.86973V8.86973ZM21.1303 8.86973V9.86973C21.5817 9.86973 21.9772 9.56727 22.0954 9.13157C22.2136 8.69588 22.0252 8.23501 21.6357 8.00685L21.1303 8.86973ZM12.2225 3.65234L12.7279 2.78946C12.4223 2.61043 12.0447 2.60647 11.7354 2.77903L12.2225 3.65234ZM2.86938 9.86973H21.1303V7.86973H2.86938V9.86973ZM21.6357 8.00685L12.7279 2.78946L11.7171 4.51523L20.6248 9.73262L21.6357 8.00685ZM11.7354 2.77903L2.38223 7.99642L3.35654 9.74305L12.7097 4.52566L11.7354 2.77903Z" fill="#B5B9D3"/>
<path d="M21.0909 20.1752H2.90909C2.90909 20.1752 2 20.1752 2 19.3056C2 18.436 2.90909 18.436 2.90909 18.436H21.0909C21.0909 18.436 22 18.436 22 19.3056C22 20.1752 21.0909 20.1752 21.0909 20.1752Z" fill="#B5B9D3"/>
<path d="M5.47852 8.87012V19.3049" stroke="#B5B9D3" stroke-width="2"/>
<path d="M10.2607 8.87012V19.3049" stroke="#B5B9D3" stroke-width="2"/>
<path d="M14.6086 9.3042V19.739" stroke="#B5B9D3" stroke-width="2"/>
<path d="M18.9563 8.87012V19.3049" stroke="#B5B9D3" stroke-width="2"/>
</svg>
