<svg width="14" height="22" viewBox="0 0 14 22" fill="none" xmlns="http://www.w3.org/2000/svg">
<path d="M0.11021 21.1772C-0.0462192 21.4005 -0.0387161 21.6793 0.149335 21.8605C0.208163 21.9275 0.296158 21.9867 0.389693 21.9949C0.500827 22.0149 0.646668 21.9761 0.751281 21.8823L7.20152 16.3654C6.29239 15.7811 5.49015 14.3763 5.12512 13.9118L0.11021 21.1772Z" fill="#FEF16E"/>
<path d="M12.7341 0.137793L3.66472 9.14378L3.51315 9.29564C3.41586 9.38908 3.38 9.5175 3.36463 9.65757C3.36972 9.80929 3.43831 9.93761 3.51817 10.0426L5.98354 12.3982C6.03371 12.4565 6.04086 12.5498 5.9958 12.6433L5.91898 12.7484L4.93886 14.1847C5.28797 14.6513 5.99745 15.5611 7.20152 16.3654L8.39456 15.4074L11.135 12.9191C11.264 12.814 11.3112 12.6622 11.3265 12.5222C11.3214 12.3704 11.2641 12.2188 11.173 12.1371L8.37793 9.65345C8.3165 9.61849 8.32061 9.50177 8.35441 9.43172L13.3904 0.779174C13.5235 0.557311 13.5021 0.277218 13.3198 0.11397C13.2492 0.0440002 13.1877 0.00903668 13.0833 0.00912243C12.9696 -0.0257981 12.8314 0.0443429 12.7341 0.137793Z" fill="#FEF16E"/>
</svg>
