<svg xmlns="http://www.w3.org/2000/svg" width="114" height="32" viewBox="0 0 114 32" fill="none">
<g clip-path="url(#clip0)">
<path d="M86.25 31.6252H91.475V20.0752H103.725V15.3752H91.475V6.3002H103.725V1.5752H86.25V31.6252Z" fill="white"/>
<path d="M112.175 11.5H107.2V31.625H112.175V11.5Z" fill="white"/>
<path d="M109.675 0.849609C107.7 0.849609 106.1 2.47461 106.1 4.44961C106.1 6.42461 107.7 8.02461 109.675 8.02461C111.675 8.02461 113.275 6.42461 113.275 4.44961C113.275 2.47461 111.65 0.849609 109.675 0.849609Z" fill="#F01484"/>
<path d="M12.1 4.82483C10.575 4.77483 9.29995 5.94983 9.24995 7.44983V10.1248H15.3499V14.5998H9.24995V31.4998H3.74995V14.6248H0.0749512V10.1248H3.74995V7.07483C3.87495 3.02483 7.24995 -0.17517 11.325 -0.0501699C11.375 -0.0501699 11.45 -0.0501699 11.5 -0.0501699C13.375 -0.10017 15.1749 0.57483 16.5999 1.77483L14.5499 5.64983C13.7999 5.17483 12.95 4.89983 12.1 4.82483Z" fill="white"/>
<path d="M38.575 10.125V31.525H34.3L33.475 29.075H32.875C31.3 30.9 28.975 31.9 26.55 31.725C20.85 31.725 18 27.65 18 21.75V10.125H23.9V20.325C23.9 22.975 24.1 26.65 27.775 26.65C29.6 26.65 32.675 25.625 32.675 20.125V10.125H38.575Z" fill="white"/>
<path d="M50.5999 14.4002C48.7749 14.4002 47.9499 15.2252 47.9499 16.2252C47.9499 17.6502 49.7749 18.0502 51.1999 18.4752C55.0749 19.3002 58.9499 20.5252 58.9499 25.0002C58.9499 29.4752 55.275 31.9252 50.8 31.9252C45.9 31.9252 42.05 28.8752 41.825 24.3752H47.1249C47.3249 26.2252 48.95 27.5752 50.8 27.4252C53.05 27.4252 53.4499 26.2002 53.4499 25.3752C53.4499 23.7502 52.0249 23.3252 50.4 22.9252C47.95 22.3252 42.45 21.3002 42.45 16.4002C42.45 12.1252 46.5249 10.0752 50.5999 10.0752C55.4999 10.0752 58.5499 12.9252 58.7499 16.6002H53.4499C53.4499 15.6252 52.8499 14.4002 50.5999 14.4002Z" fill="white"/>
<path d="M66.9 18.0746H76.475C76.05 15.9746 74.15 14.4996 72 14.5996C69.7 14.4496 67.6 15.8746 66.9 18.0746ZM82.175 22.3496H66.5C66.975 25.0746 69.425 27.0246 72.2 26.8246C73.775 26.8996 75.3 26.2246 76.275 24.9996H81.775C80.275 29.0746 76.35 31.7746 72 31.7246C66.025 31.6996 61.175 26.8496 61.2 20.8496C61.2 20.7246 61.2 20.6246 61.2 20.4996C61 14.7496 65.5 9.92461 71.25 9.72461C71.425 9.72461 71.6 9.72461 71.775 9.72461C77.275 9.72461 83 13.5996 82.175 22.3496Z" fill="white"/>
</g>
<defs>
<clipPath id="clip0">
<rect width="114" height="32" fill="white"/>
</clipPath>
</defs>
</svg>