<svg xmlns="http://www.w3.org/2000/svg" width="24" height="24" viewBox="0 0 24 24" fill="none">
<path fill-rule="evenodd" clip-rule="evenodd" d="M5 0C2.23858 0 0 2.23858 0 5V19C0 21.7614 2.23858 24 5 24H19C21.7614 24 24 21.7614 24 19V5C24 2.23858 21.7614 0 19 0H5ZM3.5 11.8318C3.49478 14.5348 5.63507 16.6898 8.33114 16.6963C10.997 16.7026 13.1805 14.563 13.189 11.9359C13.1977 9.22571 11.0728 7.06886 8.377 7.05193C5.69649 7.03509 3.50518 9.18282 3.5 11.8318ZM18.6585 11.6011C18.6585 14.1422 17.5215 16.2021 16.1191 16.2021C14.7166 16.2021 13.5797 14.1422 13.5797 11.6011C13.5797 9.06 14.7166 7.00008 16.1191 7.00008C17.5215 7.00008 18.6585 9.06 18.6585 11.6011ZM19.8696 15.734C20.3659 15.734 20.7681 13.9185 20.7681 11.6789C20.7681 9.43931 20.3659 7.62379 19.8696 7.62379C19.3732 7.62379 18.971 9.43931 18.971 11.6789C18.971 13.9185 19.3732 15.734 19.8696 15.734Z" fill="#8F9197"/>
</svg>