<?xml version="1.0" encoding="UTF-8"?>
<svg width="16px" height="16px" viewBox="0 0 16 16" version="1.1" xmlns="http://www.w3.org/2000/svg" xmlns:xlink="http://www.w3.org/1999/xlink">
    <title>Group 5</title>
    <g id="Page-1" stroke="none" stroke-width="1" fill="none" fill-rule="evenodd">
        <g id="home-page-copy-10" transform="translate(-56.000000, -470.000000)" fill="#393939" fill-rule="nonzero">
            <g id="Group-5" transform="translate(56.000000, 470.000000)">
                <g id="icons8-us-dollar-(2)-copy">
                    <path d="M8,0 C3.6,0 0,3.6 0,8 C0,12.4 3.6,16 8,16 C12.4,16 16,12.4 16,8 C16,3.6 12.4,0 8,0 Z M8,1.33333333 C11.6666667,1.33333333 14.6666667,4.33333333 14.6666667,8 C14.6666667,11.6666667 11.6666667,14.6666667 8,14.6666667 C4.33333333,14.6666667 1.33333333,11.6666667 1.33333333,8 C1.33333333,4.33333333 4.33333333,1.33333333 8,1.33333333 Z" id="Shape"></path>
                </g>
                <polygon id="+" points="8.655706 11 8.655706 8.64705882 11 8.64705882 11 7.35294118 8.655706 7.35294118 8.655706 5 7.33268859 5 7.33268859 7.35294118 5 7.35294118 5 8.64705882 7.33268859 8.64705882 7.33268859 11"></polygon>
            </g>
        </g>
    </g>
</svg>