<svg className="icon2" width="18" height="20" viewBox="0 0 18 20" fill="none" xmlns="http://www.w3.org/2000/svg">
<path fill-rule="evenodd" clip-rule="evenodd" d="M4.83327 17.7217C6.06663 18.5458 7.51666 18.9856 9 18.9856C10.4833 18.9856 11.9334 18.5458 13.1667 17.7217C14.4001 16.8976 15.3614 15.7262 15.9291 14.3558C16.4967 12.9854 16.6453 11.4774 16.3559 10.0226C16.0666 8.56773 15.3523 7.23136 14.3034 6.18246L14.3034 6.18245L10.0604 1.93946L10.0603 1.93928C9.92115 1.80002 9.75595 1.68954 9.57411 1.61417C9.39227 1.5388 9.19735 1.5 9.0005 1.5C8.80366 1.5 8.60874 1.5388 8.4269 1.61417C8.24506 1.68954 8.07985 1.80002 7.94073 1.93928L7.94052 1.9395L3.69657 6.18245C2.64771 7.23135 1.93344 8.56773 1.64409 10.0226C1.35473 11.4774 1.50328 12.9854 2.07094 14.3558C2.63861 15.7262 3.59991 16.8976 4.83327 17.7217ZM15.0106 5.47536L14.657 5.8289L15.0106 5.47535L10.7677 1.23252L10.7676 1.23235C10.5356 1.00021 10.2602 0.816044 9.95702 0.690384C9.65378 0.564693 9.32875 0.5 9.0005 0.5C8.67226 0.5 8.34722 0.564693 8.04399 0.690384C7.74085 0.816036 7.46544 1.00019 7.23349 1.23231L7.23328 1.23252L2.98949 5.47531L2.98944 5.47536C1.80074 6.66412 0.991236 8.17868 0.663297 9.8275C0.335358 11.4763 0.503712 13.1854 1.14707 14.7385C1.79043 16.2917 2.87989 17.6192 4.2777 18.5531C5.67551 19.4871 7.31888 19.9856 9 19.9856C10.6811 19.9856 12.3245 19.4871 13.7223 18.5531C15.1201 17.6192 16.2096 16.2917 16.8529 14.7385C17.4963 13.1854 17.6646 11.4763 17.3367 9.8275C17.0088 8.17868 16.1993 6.66412 15.0106 5.47536ZM6 9.99902C6.55228 9.99902 7 9.55131 7 8.99902C7 8.44674 6.55228 7.99902 6 7.99902C5.44771 7.99902 5 8.44674 5 8.99902C5 9.55131 5.44771 9.99902 6 9.99902ZM11.8536 8.64547C12.0488 8.84073 12.0488 9.15731 11.8536 9.35258L6.85355 14.3526C6.65829 14.5478 6.34171 14.5478 6.14645 14.3526C5.95118 14.1573 5.95118 13.8407 6.14645 13.6455L11.1464 8.64547C11.3417 8.45021 11.6583 8.45021 11.8536 8.64547ZM12 15C12.5523 15 13 14.5523 13 14C13 13.4477 12.5523 13 12 13C11.4477 13 11 13.4477 11 14C11 14.5523 11.4477 15 12 15Z" fill="white"/>
</svg>
