<svg width="14" height="14" viewBox="0 0 14 14" fill="none" xmlns="http://www.w3.org/2000/svg">
<path fill-rule="evenodd" clip-rule="evenodd" d="M13.4001 7.0001C13.4001 8.69748 12.7258 10.3253 11.5256 11.5256C10.3253 12.7258 8.69748 13.4001 7.0001 13.4001C5.30271 13.4001 3.67485 12.7258 2.47461 11.5256C1.27438 10.3253 0.600098 8.69748 0.600098 7.0001C0.600098 5.30271 1.27438 3.67485 2.47461 2.47461C3.67485 1.27438 5.30271 0.600098 7.0001 0.600098C8.69748 0.600098 10.3253 1.27438 11.5256 2.47461C12.7258 3.67485 13.4001 5.30271 13.4001 7.0001ZM7.0001 4.6001C6.85954 4.59996 6.72142 4.63686 6.59966 4.70708C6.47789 4.7773 6.37678 4.87837 6.3065 5.0001C6.25575 5.0944 6.18659 5.17755 6.10311 5.24463C6.01963 5.3117 5.92353 5.36133 5.82051 5.39058C5.71749 5.41982 5.60965 5.42809 5.50338 5.41489C5.39711 5.40168 5.29457 5.36727 5.20184 5.31371C5.10912 5.26014 5.02809 5.1885 4.96356 5.10303C4.89904 5.01757 4.85233 4.92002 4.8262 4.81616C4.80007 4.71231 4.79506 4.60427 4.81147 4.49845C4.82787 4.39262 4.86536 4.29117 4.9217 4.2001C5.18587 3.74259 5.59362 3.38503 6.08172 3.18287C6.56981 2.98071 7.11097 2.94525 7.62127 3.08198C8.13157 3.21872 8.5825 3.52001 8.90412 3.93914C9.22573 4.35826 9.40007 4.87179 9.4001 5.4001C9.40024 5.89659 9.24645 6.38092 8.95991 6.78638C8.67336 7.19184 8.26816 7.49849 7.8001 7.6641V7.8001C7.8001 8.01227 7.71581 8.21575 7.56578 8.36578C7.41575 8.51581 7.21227 8.6001 7.0001 8.6001C6.78792 8.6001 6.58444 8.51581 6.43441 8.36578C6.28438 8.21575 6.2001 8.01227 6.2001 7.8001V7.0001C6.2001 6.78792 6.28438 6.58444 6.43441 6.43441C6.58444 6.28438 6.78792 6.2001 7.0001 6.2001C7.21227 6.2001 7.41575 6.11581 7.56578 5.96578C7.71581 5.81575 7.8001 5.61227 7.8001 5.4001C7.8001 5.18792 7.71581 4.98444 7.56578 4.83441C7.41575 4.68438 7.21227 4.6001 7.0001 4.6001ZM7.0001 11.0001C7.21227 11.0001 7.41575 10.9158 7.56578 10.7658C7.71581 10.6158 7.8001 10.4123 7.8001 10.2001C7.8001 9.98792 7.71581 9.78444 7.56578 9.63441C7.41575 9.48438 7.21227 9.4001 7.0001 9.4001C6.78792 9.4001 6.58444 9.48438 6.43441 9.63441C6.28438 9.78444 6.2001 9.98792 6.2001 10.2001C6.2001 10.4123 6.28438 10.6158 6.43441 10.7658C6.58444 10.9158 6.78792 11.0001 7.0001 11.0001Z" fill="#0684A6"/>
</svg>
