
<svg width="22" height="21" viewBox="0 0 22 21" fill="none" xmlns="http://www.w3.org/2000/svg">
<path d="M10.0491 1.92708C10.3491 1.00608 11.6521 1.00608 11.9511 1.92708L13.4701 6.60108C13.5355 6.80157 13.6625 6.97626 13.8332 7.10018C14.0038 7.22411 14.2092 7.29092 14.4201 7.29108H19.3351C20.3041 7.29108 20.7061 8.53108 19.9231 9.10108L15.9471 11.9891C15.7763 12.1132 15.6492 12.2883 15.584 12.4891C15.5188 12.6899 15.5188 12.9063 15.5841 13.1071L17.1021 17.7811C17.4021 18.7031 16.3471 19.4691 15.5641 18.8991L11.5881 16.0111C11.4172 15.8869 11.2114 15.8199 11.0001 15.8199C10.7888 15.8199 10.583 15.8869 10.4121 16.0111L6.4361 18.8991C5.6531 19.4691 4.5981 18.7021 4.8981 17.7811L6.4161 13.1071C6.48137 12.9063 6.48141 12.6899 6.4162 12.4891C6.351 12.2883 6.22389 12.1132 6.0531 11.9891L2.0771 9.10108C1.2931 8.53108 1.6971 7.29108 2.6651 7.29108H7.5791C7.79014 7.29113 7.9958 7.22442 8.16662 7.10048C8.33744 6.97654 8.46467 6.80173 8.5301 6.60108L10.0491 1.92708V1.92708Z" stroke="#1C9E7E" stroke-width="2" stroke-linecap="round" stroke-linejoin="round"/>
</svg>
