<svg width="24" height="24" viewBox="0 0 24 24" fill="none" xmlns="http://www.w3.org/2000/svg">
<path fill-rule="evenodd" clip-rule="evenodd" d="M5 0C2.23858 0 0 2.23858 0 5V19C0 21.7614 2.23858 24 5 24H19C21.7614 24 24 21.7614 24 19V5C24 2.23858 21.7614 0 19 0H5ZM10.2953 13.9842L10.0853 17.1567C10.3928 17.1567 10.5353 17.0142 10.7078 16.8417L12.2003 15.3942L15.3053 17.6892C15.8753 18.0042 16.2878 17.8392 16.4303 17.1567L18.4703 7.54921C18.6803 6.70921 18.1553 6.32671 17.6078 6.57421L5.63033 11.1942C4.81283 11.5242 4.82033 11.9817 5.48033 12.1692L8.55533 13.1442L15.6653 8.65171C16.0028 8.44921 16.3103 8.56171 16.0553 8.79421L10.2953 13.9842Z" fill="#8F9197"/>
</svg>
