<svg xmlns="http://www.w3.org/2000/svg" width="24" height="24" viewBox="0 0 24 24" fill="none">
<path fill-rule="evenodd" clip-rule="evenodd" d="M5 0C2.23858 0 0 2.23858 0 5V19C0 21.7614 2.23858 24 5 24H19C21.7614 24 24 21.7614 24 19V5C24 2.23858 21.7614 0 19 0H5ZM17.5667 9.5757C17.5667 9.45606 17.5643 9.33739 17.559 9.2192C18.0971 8.83025 18.565 8.3449 18.9336 7.79223C18.4401 8.01165 17.9087 8.15939 17.3512 8.22623C17.9203 7.88475 18.3568 7.34515 18.5631 6.7019C18.0303 7.01723 17.4408 7.24683 16.8131 7.37083C16.3098 6.83462 15.5939 6.49992 14.8014 6.49992C13.2791 6.49992 12.0449 7.73411 12.0449 9.25553C12.0449 9.47156 12.0691 9.68226 12.1161 9.88425C9.82546 9.76897 7.79447 8.67234 6.43532 7.00464C6.19846 7.412 6.06186 7.88475 6.06186 8.38995C6.06186 9.34611 6.54866 10.1904 7.2883 10.6839C6.83638 10.6699 6.41158 10.5454 6.04007 10.3396C6.03958 10.3507 6.03958 10.3618 6.03958 10.3744C6.03958 11.7094 6.98993 12.8234 8.25076 13.0763C8.01922 13.1392 7.77558 13.1732 7.52419 13.1732C7.34691 13.1732 7.17399 13.1557 7.00591 13.1237C7.35708 14.2184 8.37427 15.0152 9.58085 15.038C8.63729 15.7772 7.44911 16.2174 6.15777 16.2174C5.93544 16.2174 5.71602 16.2049 5.49999 16.1792C6.72013 16.961 8.16841 17.4172 9.72519 17.4172C14.7942 17.4172 17.5667 13.2177 17.5667 9.5757Z" fill="#8F9197"/>
</svg>