<svg xmlns="http://www.w3.org/2000/svg" xmlns:xlink="http://www.w3.org/1999/xlink" width="597px" height="101px" viewBox="0 0 597 101" version="1.1">
    <title>Group 6</title>
    <defs>
        <rect id="path-1" x="0" y="0" width="597" height="101"/>
        <linearGradient x1="20.4419801%" y1="49.8473922%" x2="100%" y2="50.9625488%" id="linearGradient-3">
            <stop stop-color="#B1FFBF" offset="0%"/>
            <stop stop-color="#FFF16D" offset="100%"/>
        </linearGradient>
        <linearGradient x1="92.7705202%" y1="49.2850633%" x2="1.59208223%" y2="50.7257889%" id="linearGradient-4">
            <stop stop-color="#B1FFBF" offset="0%"/>
            <stop stop-color="#FFF16D" offset="100%"/>
        </linearGradient>
        <path d="M1,81 C15.1361091,59.2262906 28.1336064,48.3394359 39.9924917,48.3394359 C57.7808196,48.3394359 60.5242773,67.0342296 84.0587512,67.0342296 C107.593225,67.0342296 118.625598,57.5691609 124.291089,35.9980644 C129.956581,14.4269679 144.98755,-4.13585631 154.01651,13.651606 C163.045469,31.4390683 172.453908,55.4904568 196.300786,48.3394359 C220.147664,41.1884151 219.78343,36.8057389 235.589439,43.7638721 C251.395447,50.7220052 270.7309,60.3875092 293.231337,45.5437156 C315.731775,30.699922 330.417415,37.7729249 349.88029,41.6583202 C369.343165,45.5437156 409.110533,92.1255383 425.600807,60.869233 C442.091081,29.6129277 445.543512,47.0016112 453.244893,52.6886042 C460.946275,58.3755973 488.023752,55.8063723 507.665327,33.4776915 C527.306903,11.1490107 535.790906,0 557.943763,0 C567.253126,0 574.306308,14.3508711 580.987454,41.6583202 C585.965501,61.9963322 589.303016,75.1102254 591,81" id="path-5"/>
        <filter x="-1.0%" y="-6.8%" width="102.0%" height="114.1%" filterUnits="objectBoundingBox" id="filter-6">
            <feMorphology radius="1" operator="dilate" in="SourceAlpha" result="shadowSpreadOuter1"/>
            <feOffset dx="0" dy="0" in="shadowSpreadOuter1" result="shadowOffsetOuter1"/>
            <feMorphology radius="1" operator="erode" in="SourceAlpha" result="shadowInner"/>
            <feOffset dx="0" dy="0" in="shadowInner" result="shadowInner"/>
            <feComposite in="shadowOffsetOuter1" in2="shadowInner" operator="out" result="shadowOffsetOuter1"/>
            <feGaussianBlur stdDeviation="1.5" in="shadowOffsetOuter1" result="shadowBlurOuter1"/>
            <feColorMatrix values="0 0 0 0 1   0 0 0 0 1   0 0 0 0 1  0 0 0 0.550360726 0" type="matrix" in="shadowBlurOuter1"/>
        </filter>
    </defs>
    <g id="New-swap-design" stroke="none" stroke-width="1" fill="none" fill-rule="evenodd">
        <g id="home-page" transform="translate(-1115.000000, -589.000000)">
            <g id="Group-2" transform="translate(1115.000000, 589.000000)">
                <g id="Group-10">
                    <mask id="mask-2" fill="white">
                        <use xlink:href="#path-1"/>
                    </mask>
                    <g id="Mask"/>
                    <g mask="url(#mask-2)">
                        <g transform="translate(0.000000, 22.000000)">
                            <path d="M1,81.2883949 C15.1316124,59.4371618 28.1249751,48.5115452 39.980088,48.5115452 C57.7627574,48.5115452 60.5053424,67.2729003 84.0323299,67.2729003 C107.559317,67.2729003 118.588181,57.7741319 124.25187,36.126233 C129.915559,14.4783341 144.941747,-4.15058174 153.967835,13.7002116 C162.993922,31.5510049 172.399368,55.6880268 196.23866,48.5115452 C220.077952,41.3350636 219.713835,36.9367832 235.514815,43.9196903 C251.315796,50.9025974 270.645097,60.6025148 293.138377,45.7058709 C315.631657,30.809227 330.312626,37.9074128 349.76931,41.8066418 C369.225994,45.7058709 408.980712,92.4535449 425.46574,61.0859537 C441.950769,29.7183625 446.648386,46.5686036 453.101032,52.8761984 C459.553679,59.1837932 487.868827,56.005067 507.504155,33.5968865 C527.139483,11.188706 535.620787,0 557.766597,0 C567.072998,0 574.123937,14.4019664 580.802958,41.8066418 C588.267653,72.4222778 592,85.5477635 592,81.1830989 L1,81.2883949 Z" id="Path-6" fill="url(#linearGradient-3)" fill-rule="evenodd" opacity="0.598206"/>
                            <path d="M0,81.2737666 C14.1316124,58.9733434 27.1249751,47.8231317 38.980088,47.8231317 C56.7627574,47.8231317 59.5053424,66.9701592 83.0323299,66.9701592 C106.559317,66.9701592 117.588181,57.276127 123.25187,35.183218 C128.915559,13.0903089 143.941747,-5.92155677 152.967835,12.2961907 C161.993922,30.5139381 171.399368,55.1471384 195.23866,47.8231317 C219.077952,40.4991251 218.713835,36.0104304 234.514815,43.1368833 C250.315796,50.2633362 277.926934,66.4676972 294.037157,43.1368833 C310.14738,19.8060694 329.985353,14.6902861 342.808051,44.9597819 C355.630749,75.2292777 418.092408,72.992804 434.577436,40.9803974 C451.062465,8.96799088 456.50292,24.2233552 462.212728,32.6018763 C467.922537,40.9803974 486.868827,55.470696 506.504155,32.6018763 C526.139483,9.73305667 568.610571,-5.88709305 579.802958,40.9803974 C587.267653,72.2253911 591,85.620694 591,81.1663061 L0,81.2737666 Z" id="Path-6-Copy-2" fill="url(#linearGradient-4)" fill-rule="evenodd" opacity="0.497327532" transform="translate(295.500000, 43.500000) scale(-1, 1) translate(-295.500000, -43.500000) "/>
                            <g id="Path" fill="none">
                                <use fill="black" fill-opacity="1" filter="url(#filter-6)" xlink:href="#path-5"/>
                                <use stroke="#FFFFFF" stroke-width="2" xlink:href="#path-5"/>
                            </g>
                        </g>
                    </g>
                </g>
                <circle id="Oval" fill="#FFFFFF" cx="145" cy="28" r="4.8"/>
                <circle id="Oval" stroke="#FFFFFF" cx="145" cy="28" r="8"/>
            </g>
        </g>
    </g>
</svg>