<svg width="32" height="32" viewBox="0 0 32 32" fill="none" xmlns="http://www.w3.org/2000/svg">
<circle cx="16" cy="16" r="16" fill="#0A2336"/>
<path d="M18.1757 21.0183C17.4018 21.3323 16.5747 21.4949 15.7394 21.4972C14.8994 21.4965 14.0674 21.3336 13.2893 21.0174L9.19581 19.3599L7.15078 20.2693C6.59703 20.516 6.34845 21.1644 6.59561 21.7172C6.71077 21.9751 6.92116 22.1786 7.18284 22.2854L13.5834 25.0747C14.9731 25.6399 16.5288 25.6419 17.9198 25.0799L24.349 22.2974C25.0073 22.0311 25.3249 21.2823 25.0582 20.6249C24.9275 20.3027 24.6716 20.0472 24.349 19.9167L22.6413 19.2239L18.1757 21.0183Z" fill="url(#paint0_linear)"/>
<path d="M18.1775 15.3668C17.4038 15.6789 16.5774 15.8397 15.743 15.8406C14.903 15.8399 14.071 15.677 13.2929 15.3608L9.64168 13.8825L7.15433 14.9884C6.60056 15.2351 6.35199 15.8835 6.59914 16.4363C6.71434 16.6942 6.92469 16.8977 7.1864 17.0044L11.0025 18.5572L13.822 19.7271C15.0498 20.2272 16.4245 20.229 17.6536 19.7323L20.7629 18.467L24.3525 17.0173C25.0105 16.7514 25.328 16.0031 25.0616 15.3461C24.9309 15.0237 24.6747 14.7681 24.3517 14.6377L22.1774 13.7596L18.1775 15.3668Z" fill="url(#paint1_linear)"/>
<path d="M14.3389 6.13217L7.15347 9.32256C6.59972 9.56936 6.35114 10.2176 6.59828 10.7706C6.71348 11.0284 6.92385 11.2318 7.18555 11.3386L11.4543 13.075L13.8203 14.0709C15.0481 14.5709 16.4228 14.5728 17.652 14.0761L20.2833 12.9936L24.35 11.3481C25.0062 11.0765 25.3176 10.3251 25.0455 9.66994C24.9153 9.35612 24.6658 9.10664 24.3517 8.97615L17.1888 6.08281C16.7501 5.90551 16.2859 5.81707 15.822 5.81707C15.316 5.81707 14.8105 5.9223 14.3389 6.13217Z" fill="url(#paint2_linear)"/>
<defs>
<linearGradient id="paint0_linear" x1="15.653" y1="6.0135" x2="15.8735" y2="25.3766" gradientUnits="userSpaceOnUse">
<stop stop-color="#B7FDBC"/>
<stop offset="1" stop-color="#FAFD89"/>
</linearGradient>
<linearGradient id="paint1_linear" x1="15.9455" y1="5.50232" x2="15.7249" y2="25.3808" gradientUnits="userSpaceOnUse">
<stop stop-color="#B7FDBC"/>
<stop offset="1" stop-color="#FAFD89"/>
</linearGradient>
<linearGradient id="paint2_linear" x1="15.856" y1="5.93919" x2="15.7089" y2="25.376" gradientUnits="userSpaceOnUse">
<stop stop-color="#B7FDBC"/>
<stop offset="1" stop-color="#FAFD89"/>
</linearGradient>
</defs>
</svg>
