<svg width="32" height="32" viewBox="0 0 32 32" fill="none" xmlns="http://www.w3.org/2000/svg">
<path d="M16 32C24.8667 32 32 24.8667 32 16C32 7.13328 24.8667 0 16 0C7.13328 0 0 7.13328 0 16C0 24.8667 7.13328 32 16 32Z" fill="#2775CA"/>
<path d="M20.4 18.5328C20.4 16.1995 19 15.3995 16.2 15.0662C14.2 14.7995 13.8 14.2662 13.8 13.3328C13.8 12.3994 14.4667 11.7995 15.8 11.7995C17 11.7995 17.6667 12.1995 18 13.1995C18.0667 13.3995 18.2667 13.5328 18.4667 13.5328H19.5332C19.8 13.5328 20 13.3328 20 13.0662V12.9995C19.7332 11.5328 18.5332 10.3995 17 10.2663V8.66625C17 8.39953 16.8 8.19953 16.4667 8.13281H15.4667C15.2 8.13281 15 8.33281 14.9332 8.66625V10.1995C12.9332 10.4663 11.6667 11.7995 11.6667 13.4662C11.6667 15.6662 13 16.5328 15.8 16.8662C17.6667 17.1995 18.2667 17.5995 18.2667 18.6662C18.2667 19.733 17.3332 20.4662 16.0667 20.4662C14.3332 20.4662 13.7332 19.7328 13.5332 18.7328C13.4667 18.4662 13.2667 18.3328 13.0667 18.3328H11.9332C11.6667 18.3328 11.4667 18.5328 11.4667 18.7995V18.8662C11.7332 20.5328 12.8 21.7328 15 22.0662V23.6662C15 23.9328 15.2 24.1328 15.5332 24.1995H16.5332C16.8 24.1995 17 23.9995 17.0667 23.6662V22.0662C19.0667 21.7328 20.4 20.3328 20.4 18.5328Z" fill="white"/>
<path d="M12.6 25.5326C7.39996 23.666 4.73324 17.866 6.66668 12.7326C7.66668 9.93258 9.86668 7.7993 12.6 6.7993C12.8667 6.66602 13 6.46602 13 6.13258V5.1993C13 4.93258 12.8667 4.73258 12.6 4.66602C12.5332 4.66602 12.4 4.66602 12.3332 4.73258C5.99996 6.73258 2.53324 13.466 4.53324 19.7993C5.73324 23.5326 8.59996 26.3993 12.3332 27.5993C12.6 27.7326 12.8667 27.5993 12.9332 27.3326C13 27.266 13 27.1993 13 27.066V26.1326C13 25.9326 12.8 25.666 12.6 25.5326ZM19.6667 4.73258C19.4 4.5993 19.1333 4.73258 19.0667 4.9993C19 5.06602 19 5.13258 19 5.26602V6.1993C19 6.46602 19.2 6.73258 19.4 6.86602C24.6 8.73258 27.2667 14.5326 25.3333 19.666C24.3333 22.466 22.1333 24.5993 19.4 25.5993C19.1333 25.7326 19 25.9326 19 26.266V27.1993C19 27.466 19.1333 27.666 19.4 27.7326C19.4667 27.7326 19.6 27.7326 19.6667 27.666C26 25.666 29.4667 18.9326 27.4667 12.5993C26.2667 8.7993 23.3333 5.93258 19.6667 4.73258Z" fill="white"/>
</svg>
